<?xml version="1.0" encoding="utf-8" standalone="no"?>
<!DOCTYPE svg PUBLIC "-//W3C//DTD SVG 1.1//EN"
  "http://www.w3.org/Graphics/SVG/1.1/DTD/svg11.dtd">
<!-- Created with matplotlib (https://matplotlib.org/) -->
<svg height="576pt" version="1.1" viewBox="0 0 864 576" width="864pt" xmlns="http://www.w3.org/2000/svg" xmlns:xlink="http://www.w3.org/1999/xlink">
 <metadata>
  <rdf:RDF xmlns:cc="http://creativecommons.org/ns#" xmlns:dc="http://purl.org/dc/elements/1.1/" xmlns:rdf="http://www.w3.org/1999/02/22-rdf-syntax-ns#">
   <cc:Work>
    <dc:type rdf:resource="http://purl.org/dc/dcmitype/StillImage"/>
    <dc:date>2021-08-21T21:46:42.120436</dc:date>
    <dc:format>image/svg+xml</dc:format>
    <dc:creator>
     <cc:Agent>
      <dc:title>Matplotlib v3.3.4, https://matplotlib.org/</dc:title>
     </cc:Agent>
    </dc:creator>
   </cc:Work>
  </rdf:RDF>
 </metadata>
 <defs>
  <style type="text/css">*{stroke-linecap:butt;stroke-linejoin:round;}</style>
 </defs>
 <g id="figure_1">
  <g id="patch_1">
   <path d="M 0 576 
L 864 576 
L 864 0 
L 0 0 
z
" style="fill:#ffffff;"/>
  </g>
  <g id="axes_1">
   <g id="patch_2">
    <path d="M 108 512.64 
L 777.6 512.64 
L 777.6 69.12 
L 108 69.12 
z
" style="fill:#ffffff;"/>
   </g>
   <g id="PolyCollection_1">
    <defs>
     <path d="M 17.379077 -64.676636 
L 17.379077 -63.36 
L 20.20779 -63.36 
L 23.036503 -63.36 
L 25.865216 -63.36 
L 28.693929 -63.36 
L 31.522641 -63.36 
L 34.351354 -63.36 
L 37.180067 -63.36 
L 40.00878 -63.36 
L 42.837493 -63.36 
L 45.666205 -63.36 
L 48.494918 -63.36 
L 51.323631 -63.36 
L 54.152344 -63.36 
L 56.981057 -63.36 
L 59.809769 -63.36 
L 62.638482 -63.36 
L 65.467195 -63.36 
L 68.295908 -63.36 
L 71.12462 -63.36 
L 73.953333 -63.36 
L 76.782046 -63.36 
L 79.610759 -63.36 
L 82.439472 -63.36 
L 85.268184 -63.36 
L 88.096897 -63.36 
L 90.92561 -63.36 
L 93.754323 -63.36 
L 96.583036 -63.36 
L 99.411748 -63.36 
L 102.240461 -63.36 
L 105.069174 -63.36 
L 107.897887 -63.36 
L 110.7266 -63.36 
L 113.555312 -63.36 
L 116.384025 -63.36 
L 119.212738 -63.36 
L 122.041451 -63.36 
L 124.870163 -63.36 
L 127.698876 -63.36 
L 130.527589 -63.36 
L 133.356302 -63.36 
L 136.185015 -63.36 
L 139.013727 -63.36 
L 141.84244 -63.36 
L 144.671153 -63.36 
L 147.499866 -63.36 
L 150.328579 -63.36 
L 153.157291 -63.36 
L 155.986004 -63.36 
L 158.814717 -63.36 
L 161.64343 -63.36 
L 164.472143 -63.36 
L 167.300855 -63.36 
L 170.129568 -63.36 
L 172.958281 -63.36 
L 175.786994 -63.36 
L 178.615706 -63.36 
L 181.444419 -63.36 
L 184.273132 -63.36 
L 187.101845 -63.36 
L 189.930558 -63.36 
L 192.75927 -63.36 
L 195.587983 -63.36 
L 198.416696 -63.36 
L 201.245409 -63.36 
L 204.074122 -63.36 
L 206.902834 -63.36 
L 209.731547 -63.36 
L 212.56026 -63.36 
L 215.388973 -63.36 
L 218.217686 -63.36 
L 221.046398 -63.36 
L 223.875111 -63.36 
L 226.703824 -63.36 
L 229.532537 -63.36 
L 232.361249 -63.36 
L 235.189962 -63.36 
L 238.018675 -63.36 
L 240.847388 -63.36 
L 243.676101 -63.36 
L 246.504813 -63.36 
L 249.333526 -63.36 
L 252.162239 -63.36 
L 254.990952 -63.36 
L 257.819665 -63.36 
L 260.648377 -63.36 
L 263.47709 -63.36 
L 266.305803 -63.36 
L 269.134516 -63.36 
L 271.963229 -63.36 
L 274.791941 -63.36 
L 277.620654 -63.36 
L 280.449367 -63.36 
L 283.27808 -63.36 
L 286.106792 -63.36 
L 288.935505 -63.36 
L 291.764218 -63.36 
L 294.592931 -63.36 
L 297.421644 -63.36 
L 300.250356 -63.36 
L 303.079069 -63.36 
L 305.907782 -63.36 
L 308.736495 -63.36 
L 311.565208 -63.36 
L 314.39392 -63.36 
L 317.222633 -63.36 
L 320.051346 -63.36 
L 322.880059 -63.36 
L 325.708771 -63.36 
L 328.537484 -63.36 
L 331.366197 -63.36 
L 334.19491 -63.36 
L 337.023623 -63.36 
L 339.852335 -63.36 
L 342.681048 -63.36 
L 345.509761 -63.36 
L 348.338474 -63.36 
L 351.167187 -63.36 
L 353.995899 -63.36 
L 356.824612 -63.36 
L 359.653325 -63.36 
L 362.482038 -63.36 
L 365.310751 -63.36 
L 368.139463 -63.36 
L 370.968176 -63.36 
L 373.796889 -63.36 
L 376.625602 -63.36 
L 379.454314 -63.36 
L 382.283027 -63.36 
L 385.11174 -63.36 
L 387.940453 -63.36 
L 390.769166 -63.36 
L 393.597878 -63.36 
L 396.426591 -63.36 
L 399.255304 -63.36 
L 402.084017 -63.36 
L 404.91273 -63.36 
L 407.741442 -63.36 
L 410.570155 -63.36 
L 413.398868 -63.36 
L 416.227581 -63.36 
L 419.056294 -63.36 
L 421.885006 -63.36 
L 424.713719 -63.36 
L 427.542432 -63.36 
L 430.371145 -63.36 
L 433.199857 -63.36 
L 436.02857 -63.36 
L 438.857283 -63.36 
L 441.685996 -63.36 
L 444.514709 -63.36 
L 447.343421 -63.36 
L 450.172134 -63.36 
L 453.000847 -63.36 
L 455.82956 -63.36 
L 458.658273 -63.36 
L 461.486985 -63.36 
L 464.315698 -63.36 
L 467.144411 -63.36 
L 469.973124 -63.36 
L 472.801837 -63.36 
L 475.630549 -63.36 
L 478.459262 -63.36 
L 481.287975 -63.36 
L 484.116688 -63.36 
L 486.9454 -63.36 
L 489.774113 -63.36 
L 492.602826 -63.36 
L 495.431539 -63.36 
L 498.260252 -63.36 
L 501.088964 -63.36 
L 503.917677 -63.36 
L 506.74639 -63.36 
L 509.575103 -63.36 
L 512.403816 -63.36 
L 515.232528 -63.36 
L 518.061241 -63.36 
L 520.889954 -63.36 
L 523.718667 -63.36 
L 526.54738 -63.36 
L 529.376092 -63.36 
L 532.204805 -63.36 
L 535.033518 -63.36 
L 537.862231 -63.36 
L 540.690943 -63.36 
L 543.519656 -63.36 
L 546.348369 -63.36 
L 549.177082 -63.36 
L 552.005795 -63.36 
L 554.834507 -63.36 
L 557.66322 -63.36 
L 560.491933 -63.36 
L 563.320646 -63.36 
L 566.149359 -63.36 
L 568.978071 -63.36 
L 571.806784 -63.36 
L 574.635497 -63.36 
L 577.46421 -63.36 
L 580.292923 -63.36 
L 580.292923 -63.470269 
L 580.292923 -63.470269 
L 577.46421 -63.506978 
L 574.635497 -63.554269 
L 571.806784 -63.614634 
L 568.978071 -63.690979 
L 566.149359 -63.786642 
L 563.320646 -63.905404 
L 560.491933 -64.051472 
L 557.66322 -64.229451 
L 554.834507 -64.444284 
L 552.005795 -64.701167 
L 549.177082 -65.005432 
L 546.348369 -65.362406 
L 543.519656 -65.77723 
L 540.690943 -66.254667 
L 537.862231 -66.798878 
L 535.033518 -67.4132 
L 532.204805 -68.099914 
L 529.376092 -68.860036 
L 526.54738 -69.693127 
L 523.718667 -70.597151 
L 520.889954 -71.568384 
L 518.061241 -72.601397 
L 515.232528 -73.689114 
L 512.403816 -74.82296 
L 509.575103 -75.993093 
L 506.74639 -77.188728 
L 503.917677 -78.398532 
L 501.088964 -79.611094 
L 498.260252 -80.815434 
L 495.431539 -82.001543 
L 492.602826 -83.160927 
L 489.774113 -84.287113 
L 486.9454 -85.376119 
L 484.116688 -86.426833 
L 481.287975 -87.441297 
L 478.459262 -88.424866 
L 475.630549 -89.386239 
L 472.801837 -90.337342 
L 469.973124 -91.293065 
L 467.144411 -92.27086 
L 464.315698 -93.290201 
L 461.486985 -94.371932 
L 458.658273 -95.537507 
L 455.82956 -96.808167 
L 453.000847 -98.204057 
L 450.172134 -99.743331 
L 447.343421 -101.441278 
L 444.514709 -103.309485 
L 441.685996 -105.355096 
L 438.857283 -107.580182 
L 436.02857 -109.981272 
L 433.199857 -112.549062 
L 430.371145 -115.268335 
L 427.542432 -118.118121 
L 424.713719 -121.07209 
L 421.885006 -124.099212 
L 419.056294 -127.164642 
L 416.227581 -130.230844 
L 413.398868 -133.258903 
L 410.570155 -136.209987 
L 407.741442 -139.046905 
L 404.91273 -141.735697 
L 402.084017 -144.247192 
L 399.255304 -146.558443 
L 396.426591 -148.653993 
L 393.597878 -150.52689 
L 390.769166 -152.179391 
L 387.940453 -153.623333 
L 385.11174 -154.880125 
L 382.283027 -155.980357 
L 379.454314 -156.963059 
L 376.625602 -157.874604 
L 373.796889 -158.767341 
L 370.968176 -159.697992 
L 368.139463 -160.725911 
L 365.310751 -161.911256 
L 362.482038 -163.313187 
L 359.653325 -164.988137 
L 356.824612 -166.988247 
L 353.995899 -169.36001 
L 351.167187 -172.143167 
L 348.338474 -175.369888 
L 345.509761 -179.064243 
L 342.681048 -183.241947 
L 339.852335 -187.910382 
L 337.023623 -193.068832 
L 334.19491 -198.708924 
L 331.366197 -204.815207 
L 328.537484 -211.365839 
L 325.708771 -218.333346 
L 322.880059 -225.685403 
L 320.051346 -233.385644 
L 317.222633 -241.394445 
L 314.39392 -249.669721 
L 311.565208 -258.167688 
L 308.736495 -266.843631 
L 305.907782 -275.652663 
L 303.079069 -284.550481 
L 300.250356 -293.49411 
L 297.421644 -302.442633 
L 294.592931 -311.357872 
L 291.764218 -320.205002 
L 288.935505 -328.953054 
L 286.106792 -337.575266 
L 283.27808 -346.049256 
L 280.449367 -354.356967 
L 277.620654 -362.48437 
L 274.791941 -370.420928 
L 271.963229 -378.158814 
L 269.134516 -385.691942 
L 266.305803 -393.014848 
L 263.47709 -400.121512 
L 260.648377 -407.004197 
L 257.819665 -413.652421 
L 254.990952 -420.052146 
L 252.162239 -426.185294 
L 249.333526 -432.029651 
L 246.504813 -437.559218 
L 243.676101 -442.745032 
L 240.847388 -447.556443 
L 238.018675 -451.962786 
L 235.189962 -455.935376 
L 232.361249 -459.449689 
L 229.532537 -462.487606 
L 226.703824 -465.039534 
L 223.875111 -467.106266 
L 221.046398 -468.700408 
L 218.217686 -469.847241 
L 215.388973 -470.584917 
L 212.56026 -470.963922 
L 209.731547 -471.045789 
L 206.902834 -470.901094 
L 204.074122 -470.606811 
L 201.245409 -470.243159 
L 198.416696 -469.890092 
L 195.587983 -469.623626 
L 192.75927 -469.512188 
L 189.930558 -469.613199 
L 187.101845 -469.970052 
L 184.273132 -470.609653 
L 181.444419 -471.540633 
L 178.615706 -472.752296 
L 175.786994 -474.21435 
L 172.958281 -475.877377 
L 170.129568 -477.674004 
L 167.300855 -479.520673 
L 164.472143 -481.319912 
L 161.64343 -482.962968 
L 158.814717 -484.332704 
L 155.986004 -485.306633 
L 153.157291 -485.76 
L 150.328579 -485.568845 
L 147.499866 -484.612987 
L 144.671153 -482.778905 
L 141.84244 -479.962494 
L 139.013727 -476.071682 
L 136.185015 -471.028896 
L 133.356302 -464.773363 
L 130.527589 -457.263192 
L 127.698876 -448.477205 
L 124.870163 -438.416432 
L 122.041451 -427.105186 
L 119.212738 -414.591639 
L 116.384025 -400.947798 
L 113.555312 -386.268806 
L 110.7266 -370.671527 
L 107.897887 -354.292384 
L 105.069174 -337.284472 
L 102.240461 -319.814025 
L 99.411748 -302.056326 
L 96.583036 -284.191237 
L 93.754323 -266.398499 
L 90.92561 -248.85303 
L 88.096897 -231.72042 
L 85.268184 -215.152809 
L 82.439472 -199.285355 
L 79.610759 -184.233404 
L 76.782046 -170.090493 
L 73.953333 -156.927215 
L 71.12462 -144.790968 
L 68.295908 -133.706529 
L 65.467195 -123.677379 
L 62.638482 -114.687648 
L 59.809769 -106.704555 
L 56.981057 -99.681161 
L 54.152344 -93.559309 
L 51.323631 -88.272584 
L 48.494918 -83.749169 
L 45.666205 -79.914483 
L 42.837493 -76.693537 
L 40.00878 -74.012918 
L 37.180067 -71.802416 
L 34.351354 -69.996249 
L 31.522641 -68.533931 
L 28.693929 -67.360792 
L 25.865216 -66.42821 
L 23.036503 -65.693596 
L 20.20779 -65.120176 
L 17.379077 -64.676636 
z
" id="m38b7d1bae9" style="stroke:#ff0000;"/>
    </defs>
    <g clip-path="url(#paf40c15cf0)">
     <use style="fill:#ff0000;fill-opacity:0.5;stroke:#ff0000;" x="0" xlink:href="#m38b7d1bae9" y="576"/>
    </g>
   </g>
   <g id="PolyCollection_2">
    <defs>
     <path d="M 27.339296 -64.800722 
L 27.339296 -63.36 
L 30.536738 -63.36 
L 33.73418 -63.36 
L 36.931622 -63.36 
L 40.129065 -63.36 
L 43.326507 -63.36 
L 46.523949 -63.36 
L 49.721391 -63.36 
L 52.918834 -63.36 
L 56.116276 -63.36 
L 59.313718 -63.36 
L 62.51116 -63.36 
L 65.708603 -63.36 
L 68.906045 -63.36 
L 72.103487 -63.36 
L 75.300929 -63.36 
L 78.498372 -63.36 
L 81.695814 -63.36 
L 84.893256 -63.36 
L 88.090699 -63.36 
L 91.288141 -63.36 
L 94.485583 -63.36 
L 97.683025 -63.36 
L 100.880468 -63.36 
L 104.07791 -63.36 
L 107.275352 -63.36 
L 110.472794 -63.36 
L 113.670237 -63.36 
L 116.867679 -63.36 
L 120.065121 -63.36 
L 123.262563 -63.36 
L 126.460006 -63.36 
L 129.657448 -63.36 
L 132.85489 -63.36 
L 136.052332 -63.36 
L 139.249775 -63.36 
L 142.447217 -63.36 
L 145.644659 -63.36 
L 148.842101 -63.36 
L 152.039544 -63.36 
L 155.236986 -63.36 
L 158.434428 -63.36 
L 161.63187 -63.36 
L 164.829313 -63.36 
L 168.026755 -63.36 
L 171.224197 -63.36 
L 174.421639 -63.36 
L 177.619082 -63.36 
L 180.816524 -63.36 
L 184.013966 -63.36 
L 187.211408 -63.36 
L 190.408851 -63.36 
L 193.606293 -63.36 
L 196.803735 -63.36 
L 200.001177 -63.36 
L 203.19862 -63.36 
L 206.396062 -63.36 
L 209.593504 -63.36 
L 212.790946 -63.36 
L 215.988389 -63.36 
L 219.185831 -63.36 
L 222.383273 -63.36 
L 225.580715 -63.36 
L 228.778158 -63.36 
L 231.9756 -63.36 
L 235.173042 -63.36 
L 238.370484 -63.36 
L 241.567927 -63.36 
L 244.765369 -63.36 
L 247.962811 -63.36 
L 251.160253 -63.36 
L 254.357696 -63.36 
L 257.555138 -63.36 
L 260.75258 -63.36 
L 263.950023 -63.36 
L 267.147465 -63.36 
L 270.344907 -63.36 
L 273.542349 -63.36 
L 276.739792 -63.36 
L 279.937234 -63.36 
L 283.134676 -63.36 
L 286.332118 -63.36 
L 289.529561 -63.36 
L 292.727003 -63.36 
L 295.924445 -63.36 
L 299.121887 -63.36 
L 302.31933 -63.36 
L 305.516772 -63.36 
L 308.714214 -63.36 
L 311.911656 -63.36 
L 315.109099 -63.36 
L 318.306541 -63.36 
L 321.503983 -63.36 
L 324.701425 -63.36 
L 327.898868 -63.36 
L 331.09631 -63.36 
L 334.293752 -63.36 
L 337.491194 -63.36 
L 340.688637 -63.36 
L 343.886079 -63.36 
L 347.083521 -63.36 
L 350.280963 -63.36 
L 353.478406 -63.36 
L 356.675848 -63.36 
L 359.87329 -63.36 
L 363.070732 -63.36 
L 366.268175 -63.36 
L 369.465617 -63.36 
L 372.663059 -63.36 
L 375.860501 -63.36 
L 379.057944 -63.36 
L 382.255386 -63.36 
L 385.452828 -63.36 
L 388.65027 -63.36 
L 391.847713 -63.36 
L 395.045155 -63.36 
L 398.242597 -63.36 
L 401.440039 -63.36 
L 404.637482 -63.36 
L 407.834924 -63.36 
L 411.032366 -63.36 
L 414.229808 -63.36 
L 417.427251 -63.36 
L 420.624693 -63.36 
L 423.822135 -63.36 
L 427.019577 -63.36 
L 430.21702 -63.36 
L 433.414462 -63.36 
L 436.611904 -63.36 
L 439.809347 -63.36 
L 443.006789 -63.36 
L 446.204231 -63.36 
L 449.401673 -63.36 
L 452.599116 -63.36 
L 455.796558 -63.36 
L 458.994 -63.36 
L 462.191442 -63.36 
L 465.388885 -63.36 
L 468.586327 -63.36 
L 471.783769 -63.36 
L 474.981211 -63.36 
L 478.178654 -63.36 
L 481.376096 -63.36 
L 484.573538 -63.36 
L 487.77098 -63.36 
L 490.968423 -63.36 
L 494.165865 -63.36 
L 497.363307 -63.36 
L 500.560749 -63.36 
L 503.758192 -63.36 
L 506.955634 -63.36 
L 510.153076 -63.36 
L 513.350518 -63.36 
L 516.547961 -63.36 
L 519.745403 -63.36 
L 522.942845 -63.36 
L 526.140287 -63.36 
L 529.33773 -63.36 
L 532.535172 -63.36 
L 535.732614 -63.36 
L 538.930056 -63.36 
L 542.127499 -63.36 
L 545.324941 -63.36 
L 548.522383 -63.36 
L 551.719825 -63.36 
L 554.917268 -63.36 
L 558.11471 -63.36 
L 561.312152 -63.36 
L 564.509594 -63.36 
L 567.707037 -63.36 
L 570.904479 -63.36 
L 574.101921 -63.36 
L 577.299363 -63.36 
L 580.496806 -63.36 
L 583.694248 -63.36 
L 586.89169 -63.36 
L 590.089132 -63.36 
L 593.286575 -63.36 
L 596.484017 -63.36 
L 599.681459 -63.36 
L 602.878901 -63.36 
L 606.076344 -63.36 
L 609.273786 -63.36 
L 612.471228 -63.36 
L 615.668671 -63.36 
L 618.866113 -63.36 
L 622.063555 -63.36 
L 625.260997 -63.36 
L 628.45844 -63.36 
L 631.655882 -63.36 
L 634.853324 -63.36 
L 638.050766 -63.36 
L 641.248209 -63.36 
L 644.445651 -63.36 
L 647.643093 -63.36 
L 650.840535 -63.36 
L 654.037978 -63.36 
L 657.23542 -63.36 
L 660.432862 -63.36 
L 663.630304 -63.36 
L 663.630304 -63.401853 
L 663.630304 -63.401853 
L 660.432862 -63.419374 
L 657.23542 -63.443047 
L 654.037978 -63.474528 
L 650.840535 -63.515724 
L 647.643093 -63.568765 
L 644.445651 -63.635943 
L 641.248209 -63.719615 
L 638.050766 -63.822077 
L 634.853324 -63.945396 
L 631.655882 -64.091212 
L 628.45844 -64.260525 
L 625.260997 -64.45347 
L 622.063555 -64.669113 
L 618.866113 -64.905279 
L 615.668671 -65.158447 
L 612.471228 -65.423719 
L 609.273786 -65.694896 
L 606.076344 -65.964664 
L 602.878901 -66.22489 
L 599.681459 -66.467016 
L 596.484017 -66.682529 
L 593.286575 -66.863487 
L 590.089132 -67.003033 
L 586.89169 -67.095892 
L 583.694248 -67.138769 
L 580.496806 -67.130654 
L 577.299363 -67.072976 
L 574.101921 -66.969611 
L 570.904479 -66.826745 
L 567.707037 -66.652599 
L 564.509594 -66.457053 
L 561.312152 -66.251195 
L 558.11471 -66.04683 
L 554.917268 -65.855981 
L 551.719825 -65.690425 
L 548.522383 -65.561249 
L 545.324941 -65.478483 
L 542.127499 -65.45077 
L 538.930056 -65.485099 
L 535.732614 -65.58659 
L 532.535172 -65.758325 
L 529.33773 -66.001235 
L 526.140287 -66.314046 
L 522.942845 -66.693307 
L 519.745403 -67.133512 
L 516.547961 -67.627336 
L 513.350518 -68.166007 
L 510.153076 -68.739812 
L 506.955634 -69.33873 
L 503.758192 -69.953164 
L 500.560749 -70.574735 
L 497.363307 -71.197066 
L 494.165865 -71.816502 
L 490.968423 -72.432685 
L 487.77098 -73.048922 
L 484.573538 -73.672303 
L 481.376096 -74.313546 
L 478.178654 -74.986575 
L 474.981211 -75.707878 
L 471.783769 -76.495706 
L 468.586327 -77.369221 
L 465.388885 -78.347674 
L 462.191442 -79.449721 
L 458.994 -80.692959 
L 455.796558 -82.093726 
L 452.599116 -83.667164 
L 449.401673 -85.427539 
L 446.204231 -87.388713 
L 443.006789 -89.564686 
L 439.809347 -91.970092 
L 436.611904 -94.620511 
L 433.414462 -97.532517 
L 430.21702 -100.723401 
L 427.019577 -104.210526 
L 423.822135 -108.010374 
L 420.624693 -112.137347 
L 417.427251 -116.602432 
L 414.229808 -121.411878 
L 411.032366 -126.56601 
L 407.834924 -132.05831 
L 404.637482 -137.874836 
L 401.440039 -143.994054 
L 398.242597 -150.387053 
L 395.045155 -157.018133 
L 391.847713 -163.845682 
L 388.65027 -170.823277 
L 385.452828 -177.900926 
L 382.255386 -185.026408 
L 379.057944 -192.146681 
L 375.860501 -199.20936 
L 372.663059 -206.164303 
L 369.465617 -212.965329 
L 366.268175 -219.572098 
L 363.070732 -225.952154 
L 359.87329 -232.083052 
L 356.675848 -237.954483 
L 353.478406 -243.570186 
L 350.280963 -248.949456 
L 347.083521 -254.127966 
L 343.886079 -259.15769 
L 340.688637 -264.105703 
L 337.491194 -269.05176 
L 334.293752 -274.084621 
L 331.09631 -279.297259 
L 327.898868 -284.781174 
L 324.701425 -290.62018 
L 321.503983 -296.884112 
L 318.306541 -303.622937 
L 315.109099 -310.861758 
L 311.911656 -318.597161 
L 308.714214 -326.795232 
L 305.516772 -335.391473 
L 302.31933 -344.292663 
L 299.121887 -353.380584 
L 295.924445 -362.517345 
L 292.727003 -371.551952 
L 289.529561 -380.327639 
L 286.332118 -388.689465 
L 283.134676 -396.491655 
L 279.937234 -403.604199 
L 276.739792 -409.918315 
L 273.542349 -415.350481 
L 270.344907 -419.844849 
L 267.147465 -423.374007 
L 263.950023 -425.938164 
L 260.75258 -427.562943 
L 257.555138 -428.296065 
L 254.357696 -428.203276 
L 251.160253 -427.363863 
L 247.962811 -425.86617 
L 244.765369 -423.803428 
L 241.567927 -421.270221 
L 238.370484 -418.359778 
L 235.173042 -415.162232 
L 231.9756 -411.763846 
L 228.778158 -408.247134 
L 225.580715 -404.691684 
L 222.383273 -401.175418 
L 219.185831 -397.776 
L 215.988389 -394.572047 
L 212.790946 -391.64387 
L 209.593504 -389.073496 
L 206.396062 -386.943841 
L 203.19862 -385.337015 
L 200.001177 -384.331836 
L 196.803735 -384.000754 
L 193.606293 -384.406444 
L 190.408851 -385.598364 
L 187.211408 -387.609541 
L 184.013966 -390.453803 
L 180.816524 -394.123588 
L 177.619082 -398.588334 
L 174.421639 -403.793374 
L 171.224197 -409.659215 
L 168.026755 -416.081011 
L 164.829313 -422.928136 
L 161.63187 -430.043819 
L 158.434428 -437.244943 
L 155.236986 -444.322255 
L 152.039544 -451.041378 
L 148.842101 -457.145088 
L 145.644659 -462.357356 
L 142.447217 -466.389541 
L 139.249775 -468.949001 
L 136.052332 -469.750087 
L 132.85489 -468.527184 
L 129.657448 -465.049138 
L 126.460006 -459.134088 
L 123.262563 -450.663503 
L 120.065121 -439.594118 
L 116.867679 -425.966497 
L 113.670237 -409.909154 
L 110.472794 -391.637508 
L 107.275352 -371.447374 
L 104.07791 -349.703234 
L 100.880468 -326.822002 
L 97.683025 -303.253449 
L 94.485583 -279.458765 
L 91.288141 -255.888893 
L 88.090699 -232.964262 
L 84.893256 -211.057348 
L 81.695814 -190.479192 
L 78.498372 -171.470564 
L 75.300929 -154.198032 
L 72.103487 -138.754733 
L 68.906045 -125.165283 
L 65.708603 -113.393961 
L 62.51116 -103.355166 
L 59.313718 -94.925071 
L 56.116276 -87.953494 
L 52.918834 -82.275126 
L 49.721391 -77.719473 
L 46.523949 -74.119098 
L 43.326507 -71.315946 
L 40.129065 -69.165765 
L 36.931622 -67.540747 
L 33.73418 -66.330658 
L 30.536738 -65.442737 
L 27.339296 -64.800722 
z
" id="mbddea03b69" style="stroke:#1e90ff;"/>
    </defs>
    <g clip-path="url(#paf40c15cf0)">
     <use style="fill:#1e90ff;fill-opacity:0.5;stroke:#1e90ff;" x="0" xlink:href="#mbddea03b69" y="576"/>
    </g>
   </g>
   <g id="PolyCollection_3">
    <defs>
     <path d="M 12.754091 -64.012142 
L 12.754091 -63.36 
L 15.741447 -63.36 
L 18.728803 -63.36 
L 21.716159 -63.36 
L 24.703515 -63.36 
L 27.690871 -63.36 
L 30.678226 -63.36 
L 33.665582 -63.36 
L 36.652938 -63.36 
L 39.640294 -63.36 
L 42.62765 -63.36 
L 45.615006 -63.36 
L 48.602362 -63.36 
L 51.589718 -63.36 
L 54.577073 -63.36 
L 57.564429 -63.36 
L 60.551785 -63.36 
L 63.539141 -63.36 
L 66.526497 -63.36 
L 69.513853 -63.36 
L 72.501209 -63.36 
L 75.488564 -63.36 
L 78.47592 -63.36 
L 81.463276 -63.36 
L 84.450632 -63.36 
L 87.437988 -63.36 
L 90.425344 -63.36 
L 93.4127 -63.36 
L 96.400056 -63.36 
L 99.387411 -63.36 
L 102.374767 -63.36 
L 105.362123 -63.36 
L 108.349479 -63.36 
L 111.336835 -63.36 
L 114.324191 -63.36 
L 117.311547 -63.36 
L 120.298902 -63.36 
L 123.286258 -63.36 
L 126.273614 -63.36 
L 129.26097 -63.36 
L 132.248326 -63.36 
L 135.235682 -63.36 
L 138.223038 -63.36 
L 141.210394 -63.36 
L 144.197749 -63.36 
L 147.185105 -63.36 
L 150.172461 -63.36 
L 153.159817 -63.36 
L 156.147173 -63.36 
L 159.134529 -63.36 
L 162.121885 -63.36 
L 165.10924 -63.36 
L 168.096596 -63.36 
L 171.083952 -63.36 
L 174.071308 -63.36 
L 177.058664 -63.36 
L 180.04602 -63.36 
L 183.033376 -63.36 
L 186.020732 -63.36 
L 189.008087 -63.36 
L 191.995443 -63.36 
L 194.982799 -63.36 
L 197.970155 -63.36 
L 200.957511 -63.36 
L 203.944867 -63.36 
L 206.932223 -63.36 
L 209.919578 -63.36 
L 212.906934 -63.36 
L 215.89429 -63.36 
L 218.881646 -63.36 
L 221.869002 -63.36 
L 224.856358 -63.36 
L 227.843714 -63.36 
L 230.83107 -63.36 
L 233.818425 -63.36 
L 236.805781 -63.36 
L 239.793137 -63.36 
L 242.780493 -63.36 
L 245.767849 -63.36 
L 248.755205 -63.36 
L 251.742561 -63.36 
L 254.729916 -63.36 
L 257.717272 -63.36 
L 260.704628 -63.36 
L 263.691984 -63.36 
L 266.67934 -63.36 
L 269.666696 -63.36 
L 272.654052 -63.36 
L 275.641408 -63.36 
L 278.628763 -63.36 
L 281.616119 -63.36 
L 284.603475 -63.36 
L 287.590831 -63.36 
L 290.578187 -63.36 
L 293.565543 -63.36 
L 296.552899 -63.36 
L 299.540254 -63.36 
L 302.52761 -63.36 
L 305.514966 -63.36 
L 308.502322 -63.36 
L 311.489678 -63.36 
L 314.477034 -63.36 
L 317.46439 -63.36 
L 320.451746 -63.36 
L 323.439101 -63.36 
L 326.426457 -63.36 
L 329.413813 -63.36 
L 332.401169 -63.36 
L 335.388525 -63.36 
L 338.375881 -63.36 
L 341.363237 -63.36 
L 344.350592 -63.36 
L 347.337948 -63.36 
L 350.325304 -63.36 
L 353.31266 -63.36 
L 356.300016 -63.36 
L 359.287372 -63.36 
L 362.274728 -63.36 
L 365.262084 -63.36 
L 368.249439 -63.36 
L 371.236795 -63.36 
L 374.224151 -63.36 
L 377.211507 -63.36 
L 380.198863 -63.36 
L 383.186219 -63.36 
L 386.173575 -63.36 
L 389.16093 -63.36 
L 392.148286 -63.36 
L 395.135642 -63.36 
L 398.122998 -63.36 
L 401.110354 -63.36 
L 404.09771 -63.36 
L 407.085066 -63.36 
L 410.072422 -63.36 
L 413.059777 -63.36 
L 416.047133 -63.36 
L 419.034489 -63.36 
L 422.021845 -63.36 
L 425.009201 -63.36 
L 427.996557 -63.36 
L 430.983913 -63.36 
L 433.971268 -63.36 
L 436.958624 -63.36 
L 439.94598 -63.36 
L 442.933336 -63.36 
L 445.920692 -63.36 
L 448.908048 -63.36 
L 451.895404 -63.36 
L 454.88276 -63.36 
L 457.870115 -63.36 
L 460.857471 -63.36 
L 463.844827 -63.36 
L 466.832183 -63.36 
L 469.819539 -63.36 
L 472.806895 -63.36 
L 475.794251 -63.36 
L 478.781606 -63.36 
L 481.768962 -63.36 
L 484.756318 -63.36 
L 487.743674 -63.36 
L 490.73103 -63.36 
L 493.718386 -63.36 
L 496.705742 -63.36 
L 499.693098 -63.36 
L 502.680453 -63.36 
L 505.667809 -63.36 
L 508.655165 -63.36 
L 511.642521 -63.36 
L 514.629877 -63.36 
L 517.617233 -63.36 
L 520.604589 -63.36 
L 523.591944 -63.36 
L 526.5793 -63.36 
L 529.566656 -63.36 
L 532.554012 -63.36 
L 535.541368 -63.36 
L 538.528724 -63.36 
L 541.51608 -63.36 
L 544.503436 -63.36 
L 547.490791 -63.36 
L 550.478147 -63.36 
L 553.465503 -63.36 
L 556.452859 -63.36 
L 559.440215 -63.36 
L 562.427571 -63.36 
L 565.414927 -63.36 
L 568.402282 -63.36 
L 571.389638 -63.36 
L 574.376994 -63.36 
L 577.36435 -63.36 
L 580.351706 -63.36 
L 583.339062 -63.36 
L 586.326418 -63.36 
L 589.313774 -63.36 
L 592.301129 -63.36 
L 595.288485 -63.36 
L 598.275841 -63.36 
L 601.263197 -63.36 
L 604.250553 -63.36 
L 607.237909 -63.36 
L 607.237909 -63.458109 
L 607.237909 -63.458109 
L 604.250553 -63.491177 
L 601.263197 -63.533943 
L 598.275841 -63.588756 
L 595.288485 -63.658385 
L 592.301129 -63.746049 
L 589.313774 -63.855444 
L 586.326418 -63.990754 
L 583.339062 -64.156652 
L 580.351706 -64.358282 
L 577.36435 -64.601223 
L 574.376994 -64.89143 
L 571.389638 -65.235163 
L 568.402282 -65.638885 
L 565.414927 -66.109152 
L 562.427571 -66.652485 
L 559.440215 -67.275243 
L 556.452859 -67.983481 
L 553.465503 -68.782832 
L 550.478147 -69.67839 
L 547.490791 -70.674625 
L 544.503436 -71.775321 
L 541.51608 -72.983549 
L 538.528724 -74.301685 
L 535.541368 -75.731456 
L 532.554012 -77.274031 
L 529.566656 -78.930139 
L 526.5793 -80.70021 
L 523.591944 -82.584543 
L 520.604589 -84.58346 
L 517.617233 -86.697476 
L 514.629877 -88.927436 
L 511.642521 -91.274633 
L 508.655165 -93.740896 
L 505.667809 -96.328636 
L 502.680453 -99.040849 
L 499.693098 -101.881086 
L 496.705742 -104.853376 
L 493.718386 -107.96212 
L 490.73103 -111.211957 
L 487.743674 -114.607599 
L 484.756318 -118.153662 
L 481.768962 -121.854483 
L 478.781606 -125.71393 
L 475.794251 -129.735228 
L 472.806895 -133.920788 
L 469.819539 -138.272052 
L 466.832183 -142.789364 
L 463.844827 -147.47187 
L 460.857471 -152.317451 
L 457.870115 -157.322687 
L 454.88276 -162.482876 
L 451.895404 -167.79208 
L 448.908048 -173.243229 
L 445.920692 -178.828252 
L 442.933336 -184.538255 
L 439.94598 -190.36372 
L 436.958624 -196.294732 
L 433.971268 -202.321217 
L 430.983913 -208.433182 
L 427.996557 -214.620966 
L 425.009201 -220.875468 
L 422.021845 -227.188377 
L 419.034489 -233.552386 
L 416.047133 -239.961394 
L 413.059777 -246.410693 
L 410.072422 -252.897137 
L 407.085066 -259.419288 
L 404.09771 -265.977529 
L 401.110354 -272.574125 
L 398.122998 -279.213213 
L 395.135642 -285.9007 
L 392.148286 -292.64404 
L 389.16093 -299.451869 
L 386.173575 -306.333474 
L 383.186219 -313.298096 
L 380.198863 -320.35407 
L 377.211507 -327.507811 
L 374.224151 -334.762707 
L 371.236795 -342.117956 
L 368.249439 -349.567432 
L 365.262084 -357.098667 
L 362.274728 -364.69203 
L 359.287372 -372.320202 
L 356.300016 -379.948029 
L 353.31266 -387.5328 
L 350.325304 -395.024999 
L 347.337948 -402.369522 
L 344.350592 -409.507326 
L 341.363237 -416.377439 
L 338.375881 -422.919219 
L 335.388525 -429.074734 
L 332.401169 -434.791103 
L 329.413813 -440.022643 
L 326.426457 -444.732671 
L 323.439101 -448.894823 
L 320.451746 -452.493795 
L 317.46439 -455.525444 
L 314.477034 -457.996246 
L 311.489678 -459.922138 
L 308.502322 -461.32684 
L 305.514966 -462.23978 
L 302.52761 -462.693785 
L 299.540254 -462.722696 
L 296.552899 -462.359095 
L 293.565543 -461.6323 
L 290.578187 -460.566759 
L 287.590831 -459.180942 
L 284.603475 -457.486782 
L 281.616119 -455.489669 
L 278.628763 -453.188958 
L 275.641408 -450.578921 
L 272.654052 -447.65002 
L 269.666696 -444.390387 
L 266.67934 -440.787382 
L 263.691984 -436.829101 
L 260.704628 -432.505722 
L 257.717272 -427.810627 
L 254.729916 -422.741227 
L 251.742561 -417.299485 
L 248.755205 -411.492139 
L 245.767849 -405.330666 
L 242.780493 -398.831033 
L 239.793137 -392.013307 
L 236.805781 -384.901183 
L 233.818425 -377.521498 
L 230.83107 -369.903781 
L 227.843714 -362.079883 
L 224.856358 -354.083697 
L 221.869002 -345.950986 
L 218.881646 -337.7193 
L 215.89429 -329.427963 
L 212.906934 -321.118085 
L 209.919578 -312.832577 
L 206.932223 -304.616115 
L 203.944867 -296.515005 
L 200.957511 -288.576933 
L 197.970155 -280.850552 
L 194.982799 -273.384891 
L 191.995443 -266.228585 
L 189.008087 -259.428907 
L 186.020732 -253.030632 
L 183.033376 -247.074756 
L 180.04602 -241.597096 
L 177.058664 -236.626828 
L 174.071308 -232.185026 
L 171.083952 -228.283254 
L 168.096596 -224.922308 
L 165.10924 -222.09116 
L 162.121885 -219.766209 
L 159.134529 -217.910894 
L 156.147173 -216.475734 
L 153.159817 -215.398867 
L 150.172461 -214.607086 
L 147.185105 -214.017408 
L 144.197749 -213.53914 
L 141.210394 -213.076395 
L 138.223038 -212.530988 
L 135.235682 -211.805589 
L 132.248326 -210.807027 
L 129.26097 -209.449571 
L 126.273614 -207.658057 
L 123.286258 -205.370692 
L 120.298902 -202.541388 
L 117.311547 -199.141512 
L 114.324191 -195.160941 
L 111.336835 -190.608374 
L 108.349479 -185.510871 
L 105.362123 -179.912643 
L 102.374767 -173.873169 
L 99.387411 -167.464718 
L 96.400056 -160.769434 
L 93.4127 -153.876117 
L 90.425344 -146.87688 
L 87.437988 -139.863839 
L 84.450632 -132.925997 
L 81.463276 -126.146455 
L 78.47592 -119.600064 
L 75.488564 -113.351593 
L 72.501209 -107.45446 
L 69.513853 -101.95003 
L 66.526497 -96.867461 
L 63.539141 -92.224055 
L 60.551785 -88.026018 
L 57.564429 -84.269579 
L 54.577073 -80.942334 
L 51.589718 -78.024761 
L 48.602362 -75.491772 
L 45.615006 -73.314266 
L 42.62765 -71.460579 
L 39.640294 -69.897804 
L 36.652938 -68.592927 
L 33.665582 -67.513778 
L 30.678226 -66.629772 
L 27.690871 -65.912451 
L 24.703515 -65.33585 
L 21.716159 -64.876696 
L 18.728803 -64.514471 
L 15.741447 -64.231365 
L 12.754091 -64.012142 
z
" id="m5e507a2f5e" style="stroke:#ffa500;"/>
    </defs>
    <g clip-path="url(#paf40c15cf0)">
     <use style="fill:#ffa500;fill-opacity:0.5;stroke:#ffa500;" x="0" xlink:href="#m5e507a2f5e" y="576"/>
    </g>
   </g>
   <g id="matplotlib.axis_1">
    <g id="xtick_1">
     <g id="line2d_1">
      <defs>
       <path d="M 0 0 
L 0 3.5 
" id="m5eb039656b" style="stroke:#000000;stroke-width:0.8;"/>
      </defs>
      <g>
       <use style="stroke:#000000;stroke-width:0.8;" x="108" xlink:href="#m5eb039656b" y="512.64"/>
      </g>
     </g>
     <g id="text_1">
      <!-- 0.0 -->
      <g transform="translate(96.867812 530.277812)scale(0.14 -0.14)">
       <defs>
        <path d="M 31.78125 66.40625 
Q 24.171875 66.40625 20.328125 58.90625 
Q 16.5 51.421875 16.5 36.375 
Q 16.5 21.390625 20.328125 13.890625 
Q 24.171875 6.390625 31.78125 6.390625 
Q 39.453125 6.390625 43.28125 13.890625 
Q 47.125 21.390625 47.125 36.375 
Q 47.125 51.421875 43.28125 58.90625 
Q 39.453125 66.40625 31.78125 66.40625 
z
M 31.78125 74.21875 
Q 44.046875 74.21875 50.515625 64.515625 
Q 56.984375 54.828125 56.984375 36.375 
Q 56.984375 17.96875 50.515625 8.265625 
Q 44.046875 -1.421875 31.78125 -1.421875 
Q 19.53125 -1.421875 13.0625 8.265625 
Q 6.59375 17.96875 6.59375 36.375 
Q 6.59375 54.828125 13.0625 64.515625 
Q 19.53125 74.21875 31.78125 74.21875 
z
" id="DejaVuSans-48"/>
        <path d="M 10.6875 12.40625 
L 21 12.40625 
L 21 0 
L 10.6875 0 
z
" id="DejaVuSans-46"/>
       </defs>
       <use xlink:href="#DejaVuSans-48"/>
       <use x="63.623047" xlink:href="#DejaVuSans-46"/>
       <use x="95.410156" xlink:href="#DejaVuSans-48"/>
      </g>
     </g>
    </g>
    <g id="xtick_2">
     <g id="line2d_2">
      <g>
       <use style="stroke:#000000;stroke-width:0.8;" x="197.28" xlink:href="#m5eb039656b" y="512.64"/>
      </g>
     </g>
     <g id="text_2">
      <!-- 0.2 -->
      <g transform="translate(186.147812 530.277812)scale(0.14 -0.14)">
       <defs>
        <path d="M 19.1875 8.296875 
L 53.609375 8.296875 
L 53.609375 0 
L 7.328125 0 
L 7.328125 8.296875 
Q 12.9375 14.109375 22.625 23.890625 
Q 32.328125 33.6875 34.8125 36.53125 
Q 39.546875 41.84375 41.421875 45.53125 
Q 43.3125 49.21875 43.3125 52.78125 
Q 43.3125 58.59375 39.234375 62.25 
Q 35.15625 65.921875 28.609375 65.921875 
Q 23.96875 65.921875 18.8125 64.3125 
Q 13.671875 62.703125 7.8125 59.421875 
L 7.8125 69.390625 
Q 13.765625 71.78125 18.9375 73 
Q 24.125 74.21875 28.421875 74.21875 
Q 39.75 74.21875 46.484375 68.546875 
Q 53.21875 62.890625 53.21875 53.421875 
Q 53.21875 48.921875 51.53125 44.890625 
Q 49.859375 40.875 45.40625 35.40625 
Q 44.1875 33.984375 37.640625 27.21875 
Q 31.109375 20.453125 19.1875 8.296875 
z
" id="DejaVuSans-50"/>
       </defs>
       <use xlink:href="#DejaVuSans-48"/>
       <use x="63.623047" xlink:href="#DejaVuSans-46"/>
       <use x="95.410156" xlink:href="#DejaVuSans-50"/>
      </g>
     </g>
    </g>
    <g id="xtick_3">
     <g id="line2d_3">
      <g>
       <use style="stroke:#000000;stroke-width:0.8;" x="286.56" xlink:href="#m5eb039656b" y="512.64"/>
      </g>
     </g>
     <g id="text_3">
      <!-- 0.4 -->
      <g transform="translate(275.427813 530.277812)scale(0.14 -0.14)">
       <defs>
        <path d="M 37.796875 64.3125 
L 12.890625 25.390625 
L 37.796875 25.390625 
z
M 35.203125 72.90625 
L 47.609375 72.90625 
L 47.609375 25.390625 
L 58.015625 25.390625 
L 58.015625 17.1875 
L 47.609375 17.1875 
L 47.609375 0 
L 37.796875 0 
L 37.796875 17.1875 
L 4.890625 17.1875 
L 4.890625 26.703125 
z
" id="DejaVuSans-52"/>
       </defs>
       <use xlink:href="#DejaVuSans-48"/>
       <use x="63.623047" xlink:href="#DejaVuSans-46"/>
       <use x="95.410156" xlink:href="#DejaVuSans-52"/>
      </g>
     </g>
    </g>
    <g id="xtick_4">
     <g id="line2d_4">
      <g>
       <use style="stroke:#000000;stroke-width:0.8;" x="375.84" xlink:href="#m5eb039656b" y="512.64"/>
      </g>
     </g>
     <g id="text_4">
      <!-- 0.6 -->
      <g transform="translate(364.707813 530.277812)scale(0.14 -0.14)">
       <defs>
        <path d="M 33.015625 40.375 
Q 26.375 40.375 22.484375 35.828125 
Q 18.609375 31.296875 18.609375 23.390625 
Q 18.609375 15.53125 22.484375 10.953125 
Q 26.375 6.390625 33.015625 6.390625 
Q 39.65625 6.390625 43.53125 10.953125 
Q 47.40625 15.53125 47.40625 23.390625 
Q 47.40625 31.296875 43.53125 35.828125 
Q 39.65625 40.375 33.015625 40.375 
z
M 52.59375 71.296875 
L 52.59375 62.3125 
Q 48.875 64.0625 45.09375 64.984375 
Q 41.3125 65.921875 37.59375 65.921875 
Q 27.828125 65.921875 22.671875 59.328125 
Q 17.53125 52.734375 16.796875 39.40625 
Q 19.671875 43.65625 24.015625 45.921875 
Q 28.375 48.1875 33.59375 48.1875 
Q 44.578125 48.1875 50.953125 41.515625 
Q 57.328125 34.859375 57.328125 23.390625 
Q 57.328125 12.15625 50.6875 5.359375 
Q 44.046875 -1.421875 33.015625 -1.421875 
Q 20.359375 -1.421875 13.671875 8.265625 
Q 6.984375 17.96875 6.984375 36.375 
Q 6.984375 53.65625 15.1875 63.9375 
Q 23.390625 74.21875 37.203125 74.21875 
Q 40.921875 74.21875 44.703125 73.484375 
Q 48.484375 72.75 52.59375 71.296875 
z
" id="DejaVuSans-54"/>
       </defs>
       <use xlink:href="#DejaVuSans-48"/>
       <use x="63.623047" xlink:href="#DejaVuSans-46"/>
       <use x="95.410156" xlink:href="#DejaVuSans-54"/>
      </g>
     </g>
    </g>
    <g id="xtick_5">
     <g id="line2d_5">
      <g>
       <use style="stroke:#000000;stroke-width:0.8;" x="465.12" xlink:href="#m5eb039656b" y="512.64"/>
      </g>
     </g>
     <g id="text_5">
      <!-- 0.8 -->
      <g transform="translate(453.987813 530.277812)scale(0.14 -0.14)">
       <defs>
        <path d="M 31.78125 34.625 
Q 24.75 34.625 20.71875 30.859375 
Q 16.703125 27.09375 16.703125 20.515625 
Q 16.703125 13.921875 20.71875 10.15625 
Q 24.75 6.390625 31.78125 6.390625 
Q 38.8125 6.390625 42.859375 10.171875 
Q 46.921875 13.96875 46.921875 20.515625 
Q 46.921875 27.09375 42.890625 30.859375 
Q 38.875 34.625 31.78125 34.625 
z
M 21.921875 38.8125 
Q 15.578125 40.375 12.03125 44.71875 
Q 8.5 49.078125 8.5 55.328125 
Q 8.5 64.0625 14.71875 69.140625 
Q 20.953125 74.21875 31.78125 74.21875 
Q 42.671875 74.21875 48.875 69.140625 
Q 55.078125 64.0625 55.078125 55.328125 
Q 55.078125 49.078125 51.53125 44.71875 
Q 48 40.375 41.703125 38.8125 
Q 48.828125 37.15625 52.796875 32.3125 
Q 56.78125 27.484375 56.78125 20.515625 
Q 56.78125 9.90625 50.3125 4.234375 
Q 43.84375 -1.421875 31.78125 -1.421875 
Q 19.734375 -1.421875 13.25 4.234375 
Q 6.78125 9.90625 6.78125 20.515625 
Q 6.78125 27.484375 10.78125 32.3125 
Q 14.796875 37.15625 21.921875 38.8125 
z
M 18.3125 54.390625 
Q 18.3125 48.734375 21.84375 45.5625 
Q 25.390625 42.390625 31.78125 42.390625 
Q 38.140625 42.390625 41.71875 45.5625 
Q 45.3125 48.734375 45.3125 54.390625 
Q 45.3125 60.0625 41.71875 63.234375 
Q 38.140625 66.40625 31.78125 66.40625 
Q 25.390625 66.40625 21.84375 63.234375 
Q 18.3125 60.0625 18.3125 54.390625 
z
" id="DejaVuSans-56"/>
       </defs>
       <use xlink:href="#DejaVuSans-48"/>
       <use x="63.623047" xlink:href="#DejaVuSans-46"/>
       <use x="95.410156" xlink:href="#DejaVuSans-56"/>
      </g>
     </g>
    </g>
    <g id="xtick_6">
     <g id="line2d_6">
      <g>
       <use style="stroke:#000000;stroke-width:0.8;" x="554.4" xlink:href="#m5eb039656b" y="512.64"/>
      </g>
     </g>
     <g id="text_6">
      <!-- 1.0 -->
      <g transform="translate(543.267812 530.277812)scale(0.14 -0.14)">
       <defs>
        <path d="M 12.40625 8.296875 
L 28.515625 8.296875 
L 28.515625 63.921875 
L 10.984375 60.40625 
L 10.984375 69.390625 
L 28.421875 72.90625 
L 38.28125 72.90625 
L 38.28125 8.296875 
L 54.390625 8.296875 
L 54.390625 0 
L 12.40625 0 
z
" id="DejaVuSans-49"/>
       </defs>
       <use xlink:href="#DejaVuSans-49"/>
       <use x="63.623047" xlink:href="#DejaVuSans-46"/>
       <use x="95.410156" xlink:href="#DejaVuSans-48"/>
      </g>
     </g>
    </g>
    <g id="xtick_7">
     <g id="line2d_7">
      <g>
       <use style="stroke:#000000;stroke-width:0.8;" x="643.68" xlink:href="#m5eb039656b" y="512.64"/>
      </g>
     </g>
     <g id="text_7">
      <!-- 1.2 -->
      <g transform="translate(632.547813 530.277812)scale(0.14 -0.14)">
       <use xlink:href="#DejaVuSans-49"/>
       <use x="63.623047" xlink:href="#DejaVuSans-46"/>
       <use x="95.410156" xlink:href="#DejaVuSans-50"/>
      </g>
     </g>
    </g>
    <g id="xtick_8">
     <g id="line2d_8">
      <g>
       <use style="stroke:#000000;stroke-width:0.8;" x="732.96" xlink:href="#m5eb039656b" y="512.64"/>
      </g>
     </g>
     <g id="text_8">
      <!-- 1.4 -->
      <g transform="translate(721.827813 530.277812)scale(0.14 -0.14)">
       <use xlink:href="#DejaVuSans-49"/>
       <use x="63.623047" xlink:href="#DejaVuSans-46"/>
       <use x="95.410156" xlink:href="#DejaVuSans-52"/>
      </g>
     </g>
    </g>
    <g id="text_9">
     <!-- Insertion Time (MYA) -->
     <g transform="translate(365.292188 548.587031)scale(0.15 -0.15)">
      <defs>
       <path d="M 9.8125 72.90625 
L 19.671875 72.90625 
L 19.671875 0 
L 9.8125 0 
z
" id="DejaVuSans-73"/>
       <path d="M 54.890625 33.015625 
L 54.890625 0 
L 45.90625 0 
L 45.90625 32.71875 
Q 45.90625 40.484375 42.875 44.328125 
Q 39.84375 48.1875 33.796875 48.1875 
Q 26.515625 48.1875 22.3125 43.546875 
Q 18.109375 38.921875 18.109375 30.90625 
L 18.109375 0 
L 9.078125 0 
L 9.078125 54.6875 
L 18.109375 54.6875 
L 18.109375 46.1875 
Q 21.34375 51.125 25.703125 53.5625 
Q 30.078125 56 35.796875 56 
Q 45.21875 56 50.046875 50.171875 
Q 54.890625 44.34375 54.890625 33.015625 
z
" id="DejaVuSans-110"/>
       <path d="M 44.28125 53.078125 
L 44.28125 44.578125 
Q 40.484375 46.53125 36.375 47.5 
Q 32.28125 48.484375 27.875 48.484375 
Q 21.1875 48.484375 17.84375 46.4375 
Q 14.5 44.390625 14.5 40.28125 
Q 14.5 37.15625 16.890625 35.375 
Q 19.28125 33.59375 26.515625 31.984375 
L 29.59375 31.296875 
Q 39.15625 29.25 43.1875 25.515625 
Q 47.21875 21.78125 47.21875 15.09375 
Q 47.21875 7.46875 41.1875 3.015625 
Q 35.15625 -1.421875 24.609375 -1.421875 
Q 20.21875 -1.421875 15.453125 -0.5625 
Q 10.6875 0.296875 5.421875 2 
L 5.421875 11.28125 
Q 10.40625 8.6875 15.234375 7.390625 
Q 20.0625 6.109375 24.8125 6.109375 
Q 31.15625 6.109375 34.5625 8.28125 
Q 37.984375 10.453125 37.984375 14.40625 
Q 37.984375 18.0625 35.515625 20.015625 
Q 33.0625 21.96875 24.703125 23.78125 
L 21.578125 24.515625 
Q 13.234375 26.265625 9.515625 29.90625 
Q 5.8125 33.546875 5.8125 39.890625 
Q 5.8125 47.609375 11.28125 51.796875 
Q 16.75 56 26.8125 56 
Q 31.78125 56 36.171875 55.265625 
Q 40.578125 54.546875 44.28125 53.078125 
z
" id="DejaVuSans-115"/>
       <path d="M 56.203125 29.59375 
L 56.203125 25.203125 
L 14.890625 25.203125 
Q 15.484375 15.921875 20.484375 11.0625 
Q 25.484375 6.203125 34.421875 6.203125 
Q 39.59375 6.203125 44.453125 7.46875 
Q 49.3125 8.734375 54.109375 11.28125 
L 54.109375 2.78125 
Q 49.265625 0.734375 44.1875 -0.34375 
Q 39.109375 -1.421875 33.890625 -1.421875 
Q 20.796875 -1.421875 13.15625 6.1875 
Q 5.515625 13.8125 5.515625 26.8125 
Q 5.515625 40.234375 12.765625 48.109375 
Q 20.015625 56 32.328125 56 
Q 43.359375 56 49.78125 48.890625 
Q 56.203125 41.796875 56.203125 29.59375 
z
M 47.21875 32.234375 
Q 47.125 39.59375 43.09375 43.984375 
Q 39.0625 48.390625 32.421875 48.390625 
Q 24.90625 48.390625 20.390625 44.140625 
Q 15.875 39.890625 15.1875 32.171875 
z
" id="DejaVuSans-101"/>
       <path d="M 41.109375 46.296875 
Q 39.59375 47.171875 37.8125 47.578125 
Q 36.03125 48 33.890625 48 
Q 26.265625 48 22.1875 43.046875 
Q 18.109375 38.09375 18.109375 28.8125 
L 18.109375 0 
L 9.078125 0 
L 9.078125 54.6875 
L 18.109375 54.6875 
L 18.109375 46.1875 
Q 20.953125 51.171875 25.484375 53.578125 
Q 30.03125 56 36.53125 56 
Q 37.453125 56 38.578125 55.875 
Q 39.703125 55.765625 41.0625 55.515625 
z
" id="DejaVuSans-114"/>
       <path d="M 18.3125 70.21875 
L 18.3125 54.6875 
L 36.8125 54.6875 
L 36.8125 47.703125 
L 18.3125 47.703125 
L 18.3125 18.015625 
Q 18.3125 11.328125 20.140625 9.421875 
Q 21.96875 7.515625 27.59375 7.515625 
L 36.8125 7.515625 
L 36.8125 0 
L 27.59375 0 
Q 17.1875 0 13.234375 3.875 
Q 9.28125 7.765625 9.28125 18.015625 
L 9.28125 47.703125 
L 2.6875 47.703125 
L 2.6875 54.6875 
L 9.28125 54.6875 
L 9.28125 70.21875 
z
" id="DejaVuSans-116"/>
       <path d="M 9.421875 54.6875 
L 18.40625 54.6875 
L 18.40625 0 
L 9.421875 0 
z
M 9.421875 75.984375 
L 18.40625 75.984375 
L 18.40625 64.59375 
L 9.421875 64.59375 
z
" id="DejaVuSans-105"/>
       <path d="M 30.609375 48.390625 
Q 23.390625 48.390625 19.1875 42.75 
Q 14.984375 37.109375 14.984375 27.296875 
Q 14.984375 17.484375 19.15625 11.84375 
Q 23.34375 6.203125 30.609375 6.203125 
Q 37.796875 6.203125 41.984375 11.859375 
Q 46.1875 17.53125 46.1875 27.296875 
Q 46.1875 37.015625 41.984375 42.703125 
Q 37.796875 48.390625 30.609375 48.390625 
z
M 30.609375 56 
Q 42.328125 56 49.015625 48.375 
Q 55.71875 40.765625 55.71875 27.296875 
Q 55.71875 13.875 49.015625 6.21875 
Q 42.328125 -1.421875 30.609375 -1.421875 
Q 18.84375 -1.421875 12.171875 6.21875 
Q 5.515625 13.875 5.515625 27.296875 
Q 5.515625 40.765625 12.171875 48.375 
Q 18.84375 56 30.609375 56 
z
" id="DejaVuSans-111"/>
       <path id="DejaVuSans-32"/>
       <path d="M -0.296875 72.90625 
L 61.375 72.90625 
L 61.375 64.59375 
L 35.5 64.59375 
L 35.5 0 
L 25.59375 0 
L 25.59375 64.59375 
L -0.296875 64.59375 
z
" id="DejaVuSans-84"/>
       <path d="M 52 44.1875 
Q 55.375 50.25 60.0625 53.125 
Q 64.75 56 71.09375 56 
Q 79.640625 56 84.28125 50.015625 
Q 88.921875 44.046875 88.921875 33.015625 
L 88.921875 0 
L 79.890625 0 
L 79.890625 32.71875 
Q 79.890625 40.578125 77.09375 44.375 
Q 74.3125 48.1875 68.609375 48.1875 
Q 61.625 48.1875 57.5625 43.546875 
Q 53.515625 38.921875 53.515625 30.90625 
L 53.515625 0 
L 44.484375 0 
L 44.484375 32.71875 
Q 44.484375 40.625 41.703125 44.40625 
Q 38.921875 48.1875 33.109375 48.1875 
Q 26.21875 48.1875 22.15625 43.53125 
Q 18.109375 38.875 18.109375 30.90625 
L 18.109375 0 
L 9.078125 0 
L 9.078125 54.6875 
L 18.109375 54.6875 
L 18.109375 46.1875 
Q 21.1875 51.21875 25.484375 53.609375 
Q 29.78125 56 35.6875 56 
Q 41.65625 56 45.828125 52.96875 
Q 50 49.953125 52 44.1875 
z
" id="DejaVuSans-109"/>
       <path d="M 31 75.875 
Q 24.46875 64.65625 21.28125 53.65625 
Q 18.109375 42.671875 18.109375 31.390625 
Q 18.109375 20.125 21.3125 9.0625 
Q 24.515625 -2 31 -13.1875 
L 23.1875 -13.1875 
Q 15.875 -1.703125 12.234375 9.375 
Q 8.59375 20.453125 8.59375 31.390625 
Q 8.59375 42.28125 12.203125 53.3125 
Q 15.828125 64.359375 23.1875 75.875 
z
" id="DejaVuSans-40"/>
       <path d="M 9.8125 72.90625 
L 24.515625 72.90625 
L 43.109375 23.296875 
L 61.8125 72.90625 
L 76.515625 72.90625 
L 76.515625 0 
L 66.890625 0 
L 66.890625 64.015625 
L 48.09375 14.015625 
L 38.1875 14.015625 
L 19.390625 64.015625 
L 19.390625 0 
L 9.8125 0 
z
" id="DejaVuSans-77"/>
       <path d="M -0.203125 72.90625 
L 10.40625 72.90625 
L 30.609375 42.921875 
L 50.6875 72.90625 
L 61.28125 72.90625 
L 35.5 34.71875 
L 35.5 0 
L 25.59375 0 
L 25.59375 34.71875 
z
" id="DejaVuSans-89"/>
       <path d="M 34.1875 63.1875 
L 20.796875 26.90625 
L 47.609375 26.90625 
z
M 28.609375 72.90625 
L 39.796875 72.90625 
L 67.578125 0 
L 57.328125 0 
L 50.6875 18.703125 
L 17.828125 18.703125 
L 11.1875 0 
L 0.78125 0 
z
" id="DejaVuSans-65"/>
       <path d="M 8.015625 75.875 
L 15.828125 75.875 
Q 23.140625 64.359375 26.78125 53.3125 
Q 30.421875 42.28125 30.421875 31.390625 
Q 30.421875 20.453125 26.78125 9.375 
Q 23.140625 -1.703125 15.828125 -13.1875 
L 8.015625 -13.1875 
Q 14.5 -2 17.703125 9.0625 
Q 20.90625 20.125 20.90625 31.390625 
Q 20.90625 42.671875 17.703125 53.65625 
Q 14.5 64.65625 8.015625 75.875 
z
" id="DejaVuSans-41"/>
      </defs>
      <use xlink:href="#DejaVuSans-73"/>
      <use x="29.492188" xlink:href="#DejaVuSans-110"/>
      <use x="92.871094" xlink:href="#DejaVuSans-115"/>
      <use x="144.970703" xlink:href="#DejaVuSans-101"/>
      <use x="206.494141" xlink:href="#DejaVuSans-114"/>
      <use x="247.607422" xlink:href="#DejaVuSans-116"/>
      <use x="286.816406" xlink:href="#DejaVuSans-105"/>
      <use x="314.599609" xlink:href="#DejaVuSans-111"/>
      <use x="375.78125" xlink:href="#DejaVuSans-110"/>
      <use x="439.160156" xlink:href="#DejaVuSans-32"/>
      <use x="470.947266" xlink:href="#DejaVuSans-84"/>
      <use x="528.90625" xlink:href="#DejaVuSans-105"/>
      <use x="556.689453" xlink:href="#DejaVuSans-109"/>
      <use x="654.101562" xlink:href="#DejaVuSans-101"/>
      <use x="715.625" xlink:href="#DejaVuSans-32"/>
      <use x="747.412109" xlink:href="#DejaVuSans-40"/>
      <use x="786.425781" xlink:href="#DejaVuSans-77"/>
      <use x="872.705078" xlink:href="#DejaVuSans-89"/>
      <use x="926.039062" xlink:href="#DejaVuSans-65"/>
      <use x="994.447266" xlink:href="#DejaVuSans-41"/>
     </g>
    </g>
   </g>
   <g id="matplotlib.axis_2">
    <g id="ytick_1">
     <g id="line2d_9">
      <defs>
       <path d="M 0 0 
L -3.5 0 
" id="m761504098e" style="stroke:#000000;stroke-width:0.8;"/>
      </defs>
      <g>
       <use style="stroke:#000000;stroke-width:0.8;" x="108" xlink:href="#m761504098e" y="512.64"/>
      </g>
     </g>
     <g id="text_10">
      <!-- 0.00 -->
      <g transform="translate(69.828125 517.958906)scale(0.14 -0.14)">
       <use xlink:href="#DejaVuSans-48"/>
       <use x="63.623047" xlink:href="#DejaVuSans-46"/>
       <use x="95.410156" xlink:href="#DejaVuSans-48"/>
       <use x="159.033203" xlink:href="#DejaVuSans-48"/>
      </g>
     </g>
    </g>
    <g id="ytick_2">
     <g id="line2d_10">
      <g>
       <use style="stroke:#000000;stroke-width:0.8;" x="108" xlink:href="#m761504098e" y="458.319935"/>
      </g>
     </g>
     <g id="text_11">
      <!-- 0.25 -->
      <g transform="translate(69.828125 463.638842)scale(0.14 -0.14)">
       <defs>
        <path d="M 10.796875 72.90625 
L 49.515625 72.90625 
L 49.515625 64.59375 
L 19.828125 64.59375 
L 19.828125 46.734375 
Q 21.96875 47.46875 24.109375 47.828125 
Q 26.265625 48.1875 28.421875 48.1875 
Q 40.625 48.1875 47.75 41.5 
Q 54.890625 34.8125 54.890625 23.390625 
Q 54.890625 11.625 47.5625 5.09375 
Q 40.234375 -1.421875 26.90625 -1.421875 
Q 22.3125 -1.421875 17.546875 -0.640625 
Q 12.796875 0.140625 7.71875 1.703125 
L 7.71875 11.625 
Q 12.109375 9.234375 16.796875 8.0625 
Q 21.484375 6.890625 26.703125 6.890625 
Q 35.15625 6.890625 40.078125 11.328125 
Q 45.015625 15.765625 45.015625 23.390625 
Q 45.015625 31 40.078125 35.4375 
Q 35.15625 39.890625 26.703125 39.890625 
Q 22.75 39.890625 18.8125 39.015625 
Q 14.890625 38.140625 10.796875 36.28125 
z
" id="DejaVuSans-53"/>
       </defs>
       <use xlink:href="#DejaVuSans-48"/>
       <use x="63.623047" xlink:href="#DejaVuSans-46"/>
       <use x="95.410156" xlink:href="#DejaVuSans-50"/>
       <use x="159.033203" xlink:href="#DejaVuSans-53"/>
      </g>
     </g>
    </g>
    <g id="ytick_3">
     <g id="line2d_11">
      <g>
       <use style="stroke:#000000;stroke-width:0.8;" x="108" xlink:href="#m761504098e" y="403.999871"/>
      </g>
     </g>
     <g id="text_12">
      <!-- 0.50 -->
      <g transform="translate(69.828125 409.318777)scale(0.14 -0.14)">
       <use xlink:href="#DejaVuSans-48"/>
       <use x="63.623047" xlink:href="#DejaVuSans-46"/>
       <use x="95.410156" xlink:href="#DejaVuSans-53"/>
       <use x="159.033203" xlink:href="#DejaVuSans-48"/>
      </g>
     </g>
    </g>
    <g id="ytick_4">
     <g id="line2d_12">
      <g>
       <use style="stroke:#000000;stroke-width:0.8;" x="108" xlink:href="#m761504098e" y="349.679806"/>
      </g>
     </g>
     <g id="text_13">
      <!-- 0.75 -->
      <g transform="translate(69.828125 354.998712)scale(0.14 -0.14)">
       <defs>
        <path d="M 8.203125 72.90625 
L 55.078125 72.90625 
L 55.078125 68.703125 
L 28.609375 0 
L 18.3125 0 
L 43.21875 64.59375 
L 8.203125 64.59375 
z
" id="DejaVuSans-55"/>
       </defs>
       <use xlink:href="#DejaVuSans-48"/>
       <use x="63.623047" xlink:href="#DejaVuSans-46"/>
       <use x="95.410156" xlink:href="#DejaVuSans-55"/>
       <use x="159.033203" xlink:href="#DejaVuSans-53"/>
      </g>
     </g>
    </g>
    <g id="ytick_5">
     <g id="line2d_13">
      <g>
       <use style="stroke:#000000;stroke-width:0.8;" x="108" xlink:href="#m761504098e" y="295.359741"/>
      </g>
     </g>
     <g id="text_14">
      <!-- 1.00 -->
      <g transform="translate(69.828125 300.678648)scale(0.14 -0.14)">
       <use xlink:href="#DejaVuSans-49"/>
       <use x="63.623047" xlink:href="#DejaVuSans-46"/>
       <use x="95.410156" xlink:href="#DejaVuSans-48"/>
       <use x="159.033203" xlink:href="#DejaVuSans-48"/>
      </g>
     </g>
    </g>
    <g id="ytick_6">
     <g id="line2d_14">
      <g>
       <use style="stroke:#000000;stroke-width:0.8;" x="108" xlink:href="#m761504098e" y="241.039677"/>
      </g>
     </g>
     <g id="text_15">
      <!-- 1.25 -->
      <g transform="translate(69.828125 246.358583)scale(0.14 -0.14)">
       <use xlink:href="#DejaVuSans-49"/>
       <use x="63.623047" xlink:href="#DejaVuSans-46"/>
       <use x="95.410156" xlink:href="#DejaVuSans-50"/>
       <use x="159.033203" xlink:href="#DejaVuSans-53"/>
      </g>
     </g>
    </g>
    <g id="ytick_7">
     <g id="line2d_15">
      <g>
       <use style="stroke:#000000;stroke-width:0.8;" x="108" xlink:href="#m761504098e" y="186.719612"/>
      </g>
     </g>
     <g id="text_16">
      <!-- 1.50 -->
      <g transform="translate(69.828125 192.038518)scale(0.14 -0.14)">
       <use xlink:href="#DejaVuSans-49"/>
       <use x="63.623047" xlink:href="#DejaVuSans-46"/>
       <use x="95.410156" xlink:href="#DejaVuSans-53"/>
       <use x="159.033203" xlink:href="#DejaVuSans-48"/>
      </g>
     </g>
    </g>
    <g id="ytick_8">
     <g id="line2d_16">
      <g>
       <use style="stroke:#000000;stroke-width:0.8;" x="108" xlink:href="#m761504098e" y="132.399547"/>
      </g>
     </g>
     <g id="text_17">
      <!-- 1.75 -->
      <g transform="translate(69.828125 137.718454)scale(0.14 -0.14)">
       <use xlink:href="#DejaVuSans-49"/>
       <use x="63.623047" xlink:href="#DejaVuSans-46"/>
       <use x="95.410156" xlink:href="#DejaVuSans-55"/>
       <use x="159.033203" xlink:href="#DejaVuSans-53"/>
      </g>
     </g>
    </g>
    <g id="ytick_9">
     <g id="line2d_17">
      <g>
       <use style="stroke:#000000;stroke-width:0.8;" x="108" xlink:href="#m761504098e" y="78.079483"/>
      </g>
     </g>
     <g id="text_18">
      <!-- 2.00 -->
      <g transform="translate(69.828125 83.398389)scale(0.14 -0.14)">
       <use xlink:href="#DejaVuSans-50"/>
       <use x="63.623047" xlink:href="#DejaVuSans-46"/>
       <use x="95.410156" xlink:href="#DejaVuSans-48"/>
       <use x="159.033203" xlink:href="#DejaVuSans-48"/>
      </g>
     </g>
    </g>
    <g id="text_19">
     <!-- Density -->
     <g transform="translate(62.708594 319.392891)rotate(-90)scale(0.15 -0.15)">
      <defs>
       <path d="M 19.671875 64.796875 
L 19.671875 8.109375 
L 31.59375 8.109375 
Q 46.6875 8.109375 53.6875 14.9375 
Q 60.6875 21.78125 60.6875 36.53125 
Q 60.6875 51.171875 53.6875 57.984375 
Q 46.6875 64.796875 31.59375 64.796875 
z
M 9.8125 72.90625 
L 30.078125 72.90625 
Q 51.265625 72.90625 61.171875 64.09375 
Q 71.09375 55.28125 71.09375 36.53125 
Q 71.09375 17.671875 61.125 8.828125 
Q 51.171875 0 30.078125 0 
L 9.8125 0 
z
" id="DejaVuSans-68"/>
       <path d="M 32.171875 -5.078125 
Q 28.375 -14.84375 24.75 -17.8125 
Q 21.140625 -20.796875 15.09375 -20.796875 
L 7.90625 -20.796875 
L 7.90625 -13.28125 
L 13.1875 -13.28125 
Q 16.890625 -13.28125 18.9375 -11.515625 
Q 21 -9.765625 23.484375 -3.21875 
L 25.09375 0.875 
L 2.984375 54.6875 
L 12.5 54.6875 
L 29.59375 11.921875 
L 46.6875 54.6875 
L 56.203125 54.6875 
z
" id="DejaVuSans-121"/>
      </defs>
      <use xlink:href="#DejaVuSans-68"/>
      <use x="77.001953" xlink:href="#DejaVuSans-101"/>
      <use x="138.525391" xlink:href="#DejaVuSans-110"/>
      <use x="201.904297" xlink:href="#DejaVuSans-115"/>
      <use x="254.003906" xlink:href="#DejaVuSans-105"/>
      <use x="281.787109" xlink:href="#DejaVuSans-116"/>
      <use x="320.996094" xlink:href="#DejaVuSans-121"/>
     </g>
    </g>
   </g>
   <g id="patch_3">
    <path d="M 108 512.64 
L 108 69.12 
" style="fill:none;stroke:#000000;stroke-linecap:square;stroke-linejoin:miter;stroke-width:0.8;"/>
   </g>
   <g id="patch_4">
    <path d="M 777.6 512.64 
L 777.6 69.12 
" style="fill:none;stroke:#000000;stroke-linecap:square;stroke-linejoin:miter;stroke-width:0.8;"/>
   </g>
   <g id="patch_5">
    <path d="M 108 512.64 
L 777.6 512.64 
" style="fill:none;stroke:#000000;stroke-linecap:square;stroke-linejoin:miter;stroke-width:0.8;"/>
   </g>
   <g id="patch_6">
    <path d="M 108 69.12 
L 777.6 69.12 
" style="fill:none;stroke:#000000;stroke-linecap:square;stroke-linejoin:miter;stroke-width:0.8;"/>
   </g>
   <g id="legend_1">
    <g id="patch_7">
     <path d="M 567.48125 173.18875 
L 763.6 173.18875 
Q 767.6 173.18875 767.6 169.18875 
L 767.6 83.12 
Q 767.6 79.12 763.6 79.12 
L 567.48125 79.12 
Q 563.48125 79.12 563.48125 83.12 
L 563.48125 169.18875 
Q 563.48125 173.18875 567.48125 173.18875 
z
" style="fill:#ffffff;opacity:0.8;stroke:#cccccc;stroke-linejoin:miter;"/>
    </g>
    <g id="patch_8">
     <path d="M 571.48125 102.316875 
L 611.48125 102.316875 
L 611.48125 88.316875 
L 571.48125 88.316875 
z
" style="fill:#ff0000;fill-opacity:0.5;stroke:#ff0000;stroke-linejoin:miter;"/>
    </g>
    <g id="text_20">
     <!-- LTR/Gypsy -->
     <g transform="translate(627.48125 102.316875)scale(0.2 -0.2)">
      <defs>
       <path d="M 9.8125 72.90625 
L 19.671875 72.90625 
L 19.671875 8.296875 
L 55.171875 8.296875 
L 55.171875 0 
L 9.8125 0 
z
" id="DejaVuSans-76"/>
       <path d="M 44.390625 34.1875 
Q 47.5625 33.109375 50.5625 29.59375 
Q 53.5625 26.078125 56.59375 19.921875 
L 66.609375 0 
L 56 0 
L 46.6875 18.703125 
Q 43.0625 26.03125 39.671875 28.421875 
Q 36.28125 30.8125 30.421875 30.8125 
L 19.671875 30.8125 
L 19.671875 0 
L 9.8125 0 
L 9.8125 72.90625 
L 32.078125 72.90625 
Q 44.578125 72.90625 50.734375 67.671875 
Q 56.890625 62.453125 56.890625 51.90625 
Q 56.890625 45.015625 53.6875 40.46875 
Q 50.484375 35.9375 44.390625 34.1875 
z
M 19.671875 64.796875 
L 19.671875 38.921875 
L 32.078125 38.921875 
Q 39.203125 38.921875 42.84375 42.21875 
Q 46.484375 45.515625 46.484375 51.90625 
Q 46.484375 58.296875 42.84375 61.546875 
Q 39.203125 64.796875 32.078125 64.796875 
z
" id="DejaVuSans-82"/>
       <path d="M 25.390625 72.90625 
L 33.6875 72.90625 
L 8.296875 -9.28125 
L 0 -9.28125 
z
" id="DejaVuSans-47"/>
       <path d="M 59.515625 10.40625 
L 59.515625 29.984375 
L 43.40625 29.984375 
L 43.40625 38.09375 
L 69.28125 38.09375 
L 69.28125 6.78125 
Q 63.578125 2.734375 56.6875 0.65625 
Q 49.8125 -1.421875 42 -1.421875 
Q 24.90625 -1.421875 15.25 8.5625 
Q 5.609375 18.5625 5.609375 36.375 
Q 5.609375 54.25 15.25 64.234375 
Q 24.90625 74.21875 42 74.21875 
Q 49.125 74.21875 55.546875 72.453125 
Q 61.96875 70.703125 67.390625 67.28125 
L 67.390625 56.78125 
Q 61.921875 61.421875 55.765625 63.765625 
Q 49.609375 66.109375 42.828125 66.109375 
Q 29.4375 66.109375 22.71875 58.640625 
Q 16.015625 51.171875 16.015625 36.375 
Q 16.015625 21.625 22.71875 14.15625 
Q 29.4375 6.6875 42.828125 6.6875 
Q 48.046875 6.6875 52.140625 7.59375 
Q 56.25 8.5 59.515625 10.40625 
z
" id="DejaVuSans-71"/>
       <path d="M 18.109375 8.203125 
L 18.109375 -20.796875 
L 9.078125 -20.796875 
L 9.078125 54.6875 
L 18.109375 54.6875 
L 18.109375 46.390625 
Q 20.953125 51.265625 25.265625 53.625 
Q 29.59375 56 35.59375 56 
Q 45.5625 56 51.78125 48.09375 
Q 58.015625 40.1875 58.015625 27.296875 
Q 58.015625 14.40625 51.78125 6.484375 
Q 45.5625 -1.421875 35.59375 -1.421875 
Q 29.59375 -1.421875 25.265625 0.953125 
Q 20.953125 3.328125 18.109375 8.203125 
z
M 48.6875 27.296875 
Q 48.6875 37.203125 44.609375 42.84375 
Q 40.53125 48.484375 33.40625 48.484375 
Q 26.265625 48.484375 22.1875 42.84375 
Q 18.109375 37.203125 18.109375 27.296875 
Q 18.109375 17.390625 22.1875 11.75 
Q 26.265625 6.109375 33.40625 6.109375 
Q 40.53125 6.109375 44.609375 11.75 
Q 48.6875 17.390625 48.6875 27.296875 
z
" id="DejaVuSans-112"/>
      </defs>
      <use xlink:href="#DejaVuSans-76"/>
      <use x="41.962891" xlink:href="#DejaVuSans-84"/>
      <use x="103.046875" xlink:href="#DejaVuSans-82"/>
      <use x="172.529297" xlink:href="#DejaVuSans-47"/>
      <use x="206.220703" xlink:href="#DejaVuSans-71"/>
      <use x="283.710938" xlink:href="#DejaVuSans-121"/>
      <use x="342.890625" xlink:href="#DejaVuSans-112"/>
      <use x="406.367188" xlink:href="#DejaVuSans-115"/>
      <use x="458.466797" xlink:href="#DejaVuSans-121"/>
     </g>
    </g>
    <g id="patch_9">
     <path d="M 571.48125 131.673125 
L 611.48125 131.673125 
L 611.48125 117.673125 
L 571.48125 117.673125 
z
" style="fill:#1e90ff;fill-opacity:0.5;stroke:#1e90ff;stroke-linejoin:miter;"/>
    </g>
    <g id="text_21">
     <!-- LTR/Copia -->
     <g transform="translate(627.48125 131.673125)scale(0.2 -0.2)">
      <defs>
       <path d="M 64.40625 67.28125 
L 64.40625 56.890625 
Q 59.421875 61.53125 53.78125 63.8125 
Q 48.140625 66.109375 41.796875 66.109375 
Q 29.296875 66.109375 22.65625 58.46875 
Q 16.015625 50.828125 16.015625 36.375 
Q 16.015625 21.96875 22.65625 14.328125 
Q 29.296875 6.6875 41.796875 6.6875 
Q 48.140625 6.6875 53.78125 8.984375 
Q 59.421875 11.28125 64.40625 15.921875 
L 64.40625 5.609375 
Q 59.234375 2.09375 53.4375 0.328125 
Q 47.65625 -1.421875 41.21875 -1.421875 
Q 24.65625 -1.421875 15.125 8.703125 
Q 5.609375 18.84375 5.609375 36.375 
Q 5.609375 53.953125 15.125 64.078125 
Q 24.65625 74.21875 41.21875 74.21875 
Q 47.75 74.21875 53.53125 72.484375 
Q 59.328125 70.75 64.40625 67.28125 
z
" id="DejaVuSans-67"/>
       <path d="M 34.28125 27.484375 
Q 23.390625 27.484375 19.1875 25 
Q 14.984375 22.515625 14.984375 16.5 
Q 14.984375 11.71875 18.140625 8.90625 
Q 21.296875 6.109375 26.703125 6.109375 
Q 34.1875 6.109375 38.703125 11.40625 
Q 43.21875 16.703125 43.21875 25.484375 
L 43.21875 27.484375 
z
M 52.203125 31.203125 
L 52.203125 0 
L 43.21875 0 
L 43.21875 8.296875 
Q 40.140625 3.328125 35.546875 0.953125 
Q 30.953125 -1.421875 24.3125 -1.421875 
Q 15.921875 -1.421875 10.953125 3.296875 
Q 6 8.015625 6 15.921875 
Q 6 25.140625 12.171875 29.828125 
Q 18.359375 34.515625 30.609375 34.515625 
L 43.21875 34.515625 
L 43.21875 35.40625 
Q 43.21875 41.609375 39.140625 45 
Q 35.0625 48.390625 27.6875 48.390625 
Q 23 48.390625 18.546875 47.265625 
Q 14.109375 46.140625 10.015625 43.890625 
L 10.015625 52.203125 
Q 14.9375 54.109375 19.578125 55.046875 
Q 24.21875 56 28.609375 56 
Q 40.484375 56 46.34375 49.84375 
Q 52.203125 43.703125 52.203125 31.203125 
z
" id="DejaVuSans-97"/>
      </defs>
      <use xlink:href="#DejaVuSans-76"/>
      <use x="41.962891" xlink:href="#DejaVuSans-84"/>
      <use x="103.046875" xlink:href="#DejaVuSans-82"/>
      <use x="172.529297" xlink:href="#DejaVuSans-47"/>
      <use x="206.220703" xlink:href="#DejaVuSans-67"/>
      <use x="276.044922" xlink:href="#DejaVuSans-111"/>
      <use x="337.226562" xlink:href="#DejaVuSans-112"/>
      <use x="400.703125" xlink:href="#DejaVuSans-105"/>
      <use x="428.486328" xlink:href="#DejaVuSans-97"/>
     </g>
    </g>
    <g id="patch_10">
     <path d="M 571.48125 161.029375 
L 611.48125 161.029375 
L 611.48125 147.029375 
L 571.48125 147.029375 
z
" style="fill:#ffa500;fill-opacity:0.5;stroke:#ffa500;stroke-linejoin:miter;"/>
    </g>
    <g id="text_22">
     <!-- LTR/unknown -->
     <g transform="translate(627.48125 161.029375)scale(0.2 -0.2)">
      <defs>
       <path d="M 8.5 21.578125 
L 8.5 54.6875 
L 17.484375 54.6875 
L 17.484375 21.921875 
Q 17.484375 14.15625 20.5 10.265625 
Q 23.53125 6.390625 29.59375 6.390625 
Q 36.859375 6.390625 41.078125 11.03125 
Q 45.3125 15.671875 45.3125 23.6875 
L 45.3125 54.6875 
L 54.296875 54.6875 
L 54.296875 0 
L 45.3125 0 
L 45.3125 8.40625 
Q 42.046875 3.421875 37.71875 1 
Q 33.40625 -1.421875 27.6875 -1.421875 
Q 18.265625 -1.421875 13.375 4.4375 
Q 8.5 10.296875 8.5 21.578125 
z
M 31.109375 56 
z
" id="DejaVuSans-117"/>
       <path d="M 9.078125 75.984375 
L 18.109375 75.984375 
L 18.109375 31.109375 
L 44.921875 54.6875 
L 56.390625 54.6875 
L 27.390625 29.109375 
L 57.625 0 
L 45.90625 0 
L 18.109375 26.703125 
L 18.109375 0 
L 9.078125 0 
z
" id="DejaVuSans-107"/>
       <path d="M 4.203125 54.6875 
L 13.1875 54.6875 
L 24.421875 12.015625 
L 35.59375 54.6875 
L 46.1875 54.6875 
L 57.421875 12.015625 
L 68.609375 54.6875 
L 77.59375 54.6875 
L 63.28125 0 
L 52.6875 0 
L 40.921875 44.828125 
L 29.109375 0 
L 18.5 0 
z
" id="DejaVuSans-119"/>
      </defs>
      <use xlink:href="#DejaVuSans-76"/>
      <use x="41.962891" xlink:href="#DejaVuSans-84"/>
      <use x="103.046875" xlink:href="#DejaVuSans-82"/>
      <use x="172.529297" xlink:href="#DejaVuSans-47"/>
      <use x="206.220703" xlink:href="#DejaVuSans-117"/>
      <use x="269.599609" xlink:href="#DejaVuSans-110"/>
      <use x="332.978516" xlink:href="#DejaVuSans-107"/>
      <use x="390.888672" xlink:href="#DejaVuSans-110"/>
      <use x="454.267578" xlink:href="#DejaVuSans-111"/>
      <use x="515.449219" xlink:href="#DejaVuSans-119"/>
      <use x="597.236328" xlink:href="#DejaVuSans-110"/>
     </g>
    </g>
   </g>
  </g>
 </g>
 <defs>
  <clipPath id="paf40c15cf0">
   <rect height="443.52" width="669.6" x="108" y="69.12"/>
  </clipPath>
 </defs>
</svg>
