<?xml version="1.0" encoding="utf-8" standalone="no"?>
<!DOCTYPE svg PUBLIC "-//W3C//DTD SVG 1.1//EN"
  "http://www.w3.org/Graphics/SVG/1.1/DTD/svg11.dtd">
<!-- Created with matplotlib (https://matplotlib.org/) -->
<svg height="576pt" version="1.1" viewBox="0 0 864 576" width="864pt" xmlns="http://www.w3.org/2000/svg" xmlns:xlink="http://www.w3.org/1999/xlink">
 <metadata>
  <rdf:RDF xmlns:cc="http://creativecommons.org/ns#" xmlns:dc="http://purl.org/dc/elements/1.1/" xmlns:rdf="http://www.w3.org/1999/02/22-rdf-syntax-ns#">
   <cc:Work>
    <dc:type rdf:resource="http://purl.org/dc/dcmitype/StillImage"/>
    <dc:date>2021-06-29T11:18:48.194142</dc:date>
    <dc:format>image/svg+xml</dc:format>
    <dc:creator>
     <cc:Agent>
      <dc:title>Matplotlib v3.3.4, https://matplotlib.org/</dc:title>
     </cc:Agent>
    </dc:creator>
   </cc:Work>
  </rdf:RDF>
 </metadata>
 <defs>
  <style type="text/css">*{stroke-linecap:butt;stroke-linejoin:round;}</style>
 </defs>
 <g id="figure_1">
  <g id="patch_1">
   <path d="M 0 576 
L 864 576 
L 864 0 
L 0 0 
z
" style="fill:#ffffff;"/>
  </g>
  <g id="axes_1">
   <g id="patch_2">
    <path d="M 108 512.64 
L 777.6 512.64 
L 777.6 69.12 
L 108 69.12 
z
" style="fill:#ffffff;"/>
   </g>
   <g id="PolyCollection_1">
    <defs>
     <path d="M 17.171497 -64.070771 
L 17.171497 -63.36 
L 20.181753 -63.36 
L 23.19201 -63.36 
L 26.202266 -63.36 
L 29.212522 -63.36 
L 32.222779 -63.36 
L 35.233035 -63.36 
L 38.243291 -63.36 
L 41.253547 -63.36 
L 44.263804 -63.36 
L 47.27406 -63.36 
L 50.284316 -63.36 
L 53.294573 -63.36 
L 56.304829 -63.36 
L 59.315085 -63.36 
L 62.325342 -63.36 
L 65.335598 -63.36 
L 68.345854 -63.36 
L 71.356111 -63.36 
L 74.366367 -63.36 
L 77.376623 -63.36 
L 80.38688 -63.36 
L 83.397136 -63.36 
L 86.407392 -63.36 
L 89.417648 -63.36 
L 92.427905 -63.36 
L 95.438161 -63.36 
L 98.448417 -63.36 
L 101.458674 -63.36 
L 104.46893 -63.36 
L 107.479186 -63.36 
L 110.489443 -63.36 
L 113.499699 -63.36 
L 116.509955 -63.36 
L 119.520212 -63.36 
L 122.530468 -63.36 
L 125.540724 -63.36 
L 128.550981 -63.36 
L 131.561237 -63.36 
L 134.571493 -63.36 
L 137.581749 -63.36 
L 140.592006 -63.36 
L 143.602262 -63.36 
L 146.612518 -63.36 
L 149.622775 -63.36 
L 152.633031 -63.36 
L 155.643287 -63.36 
L 158.653544 -63.36 
L 161.6638 -63.36 
L 164.674056 -63.36 
L 167.684313 -63.36 
L 170.694569 -63.36 
L 173.704825 -63.36 
L 176.715082 -63.36 
L 179.725338 -63.36 
L 182.735594 -63.36 
L 185.74585 -63.36 
L 188.756107 -63.36 
L 191.766363 -63.36 
L 194.776619 -63.36 
L 197.786876 -63.36 
L 200.797132 -63.36 
L 203.807388 -63.36 
L 206.817645 -63.36 
L 209.827901 -63.36 
L 212.838157 -63.36 
L 215.848414 -63.36 
L 218.85867 -63.36 
L 221.868926 -63.36 
L 224.879182 -63.36 
L 227.889439 -63.36 
L 230.899695 -63.36 
L 233.909951 -63.36 
L 236.920208 -63.36 
L 239.930464 -63.36 
L 242.94072 -63.36 
L 245.950977 -63.36 
L 248.961233 -63.36 
L 251.971489 -63.36 
L 254.981746 -63.36 
L 257.992002 -63.36 
L 261.002258 -63.36 
L 264.012515 -63.36 
L 267.022771 -63.36 
L 270.033027 -63.36 
L 273.043283 -63.36 
L 276.05354 -63.36 
L 279.063796 -63.36 
L 282.074052 -63.36 
L 285.084309 -63.36 
L 288.094565 -63.36 
L 291.104821 -63.36 
L 294.115078 -63.36 
L 297.125334 -63.36 
L 300.13559 -63.36 
L 303.145847 -63.36 
L 306.156103 -63.36 
L 309.166359 -63.36 
L 312.176616 -63.36 
L 315.186872 -63.36 
L 318.197128 -63.36 
L 321.207384 -63.36 
L 324.217641 -63.36 
L 327.227897 -63.36 
L 330.238153 -63.36 
L 333.24841 -63.36 
L 336.258666 -63.36 
L 339.268922 -63.36 
L 342.279179 -63.36 
L 345.289435 -63.36 
L 348.299691 -63.36 
L 351.309948 -63.36 
L 354.320204 -63.36 
L 357.33046 -63.36 
L 360.340717 -63.36 
L 363.350973 -63.36 
L 366.361229 -63.36 
L 369.371485 -63.36 
L 372.381742 -63.36 
L 375.391998 -63.36 
L 378.402254 -63.36 
L 381.412511 -63.36 
L 384.422767 -63.36 
L 387.433023 -63.36 
L 390.44328 -63.36 
L 393.453536 -63.36 
L 396.463792 -63.36 
L 399.474049 -63.36 
L 402.484305 -63.36 
L 405.494561 -63.36 
L 408.504818 -63.36 
L 411.515074 -63.36 
L 414.52533 -63.36 
L 417.535586 -63.36 
L 420.545843 -63.36 
L 423.556099 -63.36 
L 426.566355 -63.36 
L 429.576612 -63.36 
L 432.586868 -63.36 
L 435.597124 -63.36 
L 438.607381 -63.36 
L 441.617637 -63.36 
L 444.627893 -63.36 
L 447.63815 -63.36 
L 450.648406 -63.36 
L 453.658662 -63.36 
L 456.668918 -63.36 
L 459.679175 -63.36 
L 462.689431 -63.36 
L 465.699687 -63.36 
L 468.709944 -63.36 
L 471.7202 -63.36 
L 474.730456 -63.36 
L 477.740713 -63.36 
L 480.750969 -63.36 
L 483.761225 -63.36 
L 486.771482 -63.36 
L 489.781738 -63.36 
L 492.791994 -63.36 
L 495.802251 -63.36 
L 498.812507 -63.36 
L 501.822763 -63.36 
L 504.833019 -63.36 
L 507.843276 -63.36 
L 510.853532 -63.36 
L 513.863788 -63.36 
L 516.874045 -63.36 
L 519.884301 -63.36 
L 522.894557 -63.36 
L 525.904814 -63.36 
L 528.91507 -63.36 
L 531.925326 -63.36 
L 534.935583 -63.36 
L 537.945839 -63.36 
L 540.956095 -63.36 
L 543.966352 -63.36 
L 546.976608 -63.36 
L 549.986864 -63.36 
L 552.99712 -63.36 
L 556.007377 -63.36 
L 559.017633 -63.36 
L 562.027889 -63.36 
L 565.038146 -63.36 
L 568.048402 -63.36 
L 571.058658 -63.36 
L 574.068915 -63.36 
L 577.079171 -63.36 
L 580.089427 -63.36 
L 583.099684 -63.36 
L 586.10994 -63.36 
L 589.120196 -63.36 
L 592.130453 -63.36 
L 595.140709 -63.36 
L 598.150965 -63.36 
L 601.161221 -63.36 
L 604.171478 -63.36 
L 607.181734 -63.36 
L 610.19199 -63.36 
L 613.202247 -63.36 
L 616.212503 -63.36 
L 616.212503 -63.413836 
L 616.212503 -63.413836 
L 613.202247 -63.432191 
L 610.19199 -63.455852 
L 607.181734 -63.486017 
L 604.171478 -63.524047 
L 601.161221 -63.571458 
L 598.150965 -63.629896 
L 595.140709 -63.701104 
L 592.130453 -63.786873 
L 589.120196 -63.888978 
L 586.10994 -64.009096 
L 583.099684 -64.148715 
L 580.089427 -64.309029 
L 577.079171 -64.490838 
L 574.068915 -64.694435 
L 571.058658 -64.919521 
L 568.048402 -65.165126 
L 565.038146 -65.429568 
L 562.027889 -65.710448 
L 559.017633 -66.004699 
L 556.007377 -66.30868 
L 552.99712 -66.618346 
L 549.986864 -66.929464 
L 546.976608 -67.237898 
L 543.966352 -67.53994 
L 540.956095 -67.83269 
L 537.945839 -68.114449 
L 534.935583 -68.385131 
L 531.925326 -68.646653 
L 528.91507 -68.903297 
L 525.904814 -69.162011 
L 522.894557 -69.432631 
L 519.884301 -69.728016 
L 516.874045 -70.064057 
L 513.863788 -70.45959 
L 510.853532 -70.936161 
L 507.843276 -71.517687 
L 504.833019 -72.229986 
L 501.822763 -73.100209 
L 498.812507 -74.156176 
L 495.802251 -75.425645 
L 492.791994 -76.935528 
L 489.781738 -78.711092 
L 486.771482 -80.775155 
L 483.761225 -83.147323 
L 480.750969 -85.843287 
L 477.740713 -88.874202 
L 474.730456 -92.246186 
L 471.7202 -95.959949 
L 468.709944 -100.010576 
L 465.699687 -104.387478 
L 462.689431 -109.074513 
L 459.679175 -114.050283 
L 456.668918 -119.2886 
L 453.658662 -124.759108 
L 450.648406 -130.428041 
L 447.63815 -136.259093 
L 444.627893 -142.214362 
L 441.617637 -148.255344 
L 438.607381 -154.343918 
L 435.597124 -160.4433 
L 432.586868 -166.518907 
L 429.576612 -172.539111 
L 426.566355 -178.475826 
L 423.556099 -184.30493 
L 420.545843 -190.006471 
L 417.535586 -195.564686 
L 414.52533 -200.967804 
L 411.515074 -206.207684 
L 408.504818 -211.27929 
L 405.494561 -216.180074 
L 402.484305 -220.909286 
L 399.474049 -225.467306 
L 396.463792 -229.855024 
L 393.453536 -234.073348 
L 390.44328 -238.122877 
L 387.433023 -242.00378 
L 384.422767 -245.715911 
L 381.412511 -249.259142 
L 378.402254 -252.633915 
L 375.391998 -255.841961 
L 372.381742 -258.887136 
L 369.371485 -261.776291 
L 366.361229 -264.520101 
L 363.350973 -267.133773 
L 360.340717 -269.637541 
L 357.33046 -272.056889 
L 354.320204 -274.422456 
L 351.309948 -276.769592 
L 348.299691 -279.13757 
L 345.289435 -281.568483 
L 342.279179 -284.105887 
L 339.268922 -286.793252 
L 336.258666 -289.672331 
L 333.24841 -292.781523 
L 330.238153 -296.154349 
L 327.227897 -299.818111 
L 324.217641 -303.792814 
L 321.207384 -308.090395 
L 318.197128 -312.714285 
L 315.186872 -317.659305 
L 312.176616 -322.911864 
L 309.166359 -328.450425 
L 306.156103 -334.246172 
L 303.145847 -340.263824 
L 300.13559 -346.462542 
L 297.125334 -352.796852 
L 294.115078 -359.217585 
L 291.104821 -365.672768 
L 288.094565 -372.1085 
L 285.084309 -378.469787 
L 282.074052 -384.701382 
L 279.063796 -390.748633 
L 276.05354 -396.558376 
L 273.043283 -402.079867 
L 270.033027 -407.265775 
L 267.022771 -412.073205 
L 264.012515 -416.464722 
L 261.002258 -420.409316 
L 257.992002 -423.883271 
L 254.981746 -426.870836 
L 251.971489 -429.364659 
L 248.961233 -431.365908 
L 245.950977 -432.884056 
L 242.94072 -433.936293 
L 239.930464 -434.546594 
L 236.920208 -434.744472 
L 233.909951 -434.563488 
L 230.899695 -434.039608 
L 227.889439 -433.209519 
L 224.879182 -432.109012 
L 221.868926 -430.771555 
L 218.85867 -429.22715 
L 215.848414 -427.501561 
L 212.838157 -425.615946 
L 209.827901 -423.586926 
L 206.817645 -421.427049 
L 203.807388 -419.14559 
L 200.797132 -416.74959 
L 197.786876 -414.245007 
L 194.776619 -411.637849 
L 191.766363 -408.935135 
L 188.756107 -406.145557 
L 185.74585 -403.279732 
L 182.735594 -400.349973 
L 179.725338 -397.369535 
L 176.715082 -394.351377 
L 173.704825 -391.306476 
L 170.694569 -388.241848 
L 167.684313 -385.158408 
L 164.674056 -382.048871 
L 161.6638 -378.895904 
L 158.653544 -375.670723 
L 155.643287 -372.332335 
L 152.633031 -368.827562 
L 149.622775 -365.09196 
L 146.612518 -361.05166 
L 143.602262 -356.626108 
L 140.592006 -351.731586 
L 137.581749 -346.285356 
L 134.571493 -340.210194 
L 131.561237 -333.439029 
L 128.550981 -325.91942 
L 125.540724 -317.617541 
L 122.530468 -308.521429 
L 119.520212 -298.643243 
L 116.509955 -288.020364 
L 113.499699 -276.71525 
L 110.489443 -264.814017 
L 107.479186 -252.423827 
L 104.46893 -239.669219 
L 101.458674 -226.687614 
L 98.448417 -213.624246 
L 95.438161 -200.626814 
L 92.427905 -187.840176 
L 89.417648 -175.401349 
L 86.407392 -163.435086 
L 83.397136 -152.050233 
L 80.38688 -141.337007 
L 77.376623 -131.365264 
L 74.366367 -122.183787 
L 71.356111 -113.820517 
L 68.345854 -106.283639 
L 65.335598 -99.563371 
L 62.325342 -93.63429 
L 59.315085 -88.458003 
L 56.304829 -83.986003 
L 53.294573 -80.162525 
L 50.284316 -76.927274 
L 47.27406 -74.217909 
L 44.263804 -71.972199 
L 41.253547 -70.129809 
L 38.243291 -68.633696 
L 35.233035 -67.431112 
L 32.222779 -66.474257 
L 29.212522 -65.720612 
L 26.202266 -65.133004 
L 23.19201 -64.679462 
L 20.181753 -64.332913 
L 17.171497 -64.070771 
z
" id="m43d77a8d9a" style="stroke:#ff0000;"/>
    </defs>
    <g clip-path="url(#pb86c2eee19)">
     <use style="fill:#ff0000;fill-opacity:0.6;stroke:#ff0000;" x="0" xlink:href="#m43d77a8d9a" y="576"/>
    </g>
   </g>
   <g id="PolyCollection_2">
    <defs>
     <path d="M 7.177747 -63.850567 
L 7.177747 -63.36 
L 10.207127 -63.36 
L 13.236506 -63.36 
L 16.265885 -63.36 
L 19.295265 -63.36 
L 22.324644 -63.36 
L 25.354024 -63.36 
L 28.383403 -63.36 
L 31.412783 -63.36 
L 34.442162 -63.36 
L 37.471541 -63.36 
L 40.500921 -63.36 
L 43.5303 -63.36 
L 46.55968 -63.36 
L 49.589059 -63.36 
L 52.618439 -63.36 
L 55.647818 -63.36 
L 58.677197 -63.36 
L 61.706577 -63.36 
L 64.735956 -63.36 
L 67.765336 -63.36 
L 70.794715 -63.36 
L 73.824095 -63.36 
L 76.853474 -63.36 
L 79.882853 -63.36 
L 82.912233 -63.36 
L 85.941612 -63.36 
L 88.970992 -63.36 
L 92.000371 -63.36 
L 95.029751 -63.36 
L 98.05913 -63.36 
L 101.088509 -63.36 
L 104.117889 -63.36 
L 107.147268 -63.36 
L 110.176648 -63.36 
L 113.206027 -63.36 
L 116.235406 -63.36 
L 119.264786 -63.36 
L 122.294165 -63.36 
L 125.323545 -63.36 
L 128.352924 -63.36 
L 131.382304 -63.36 
L 134.411683 -63.36 
L 137.441062 -63.36 
L 140.470442 -63.36 
L 143.499821 -63.36 
L 146.529201 -63.36 
L 149.55858 -63.36 
L 152.58796 -63.36 
L 155.617339 -63.36 
L 158.646718 -63.36 
L 161.676098 -63.36 
L 164.705477 -63.36 
L 167.734857 -63.36 
L 170.764236 -63.36 
L 173.793616 -63.36 
L 176.822995 -63.36 
L 179.852374 -63.36 
L 182.881754 -63.36 
L 185.911133 -63.36 
L 188.940513 -63.36 
L 191.969892 -63.36 
L 194.999272 -63.36 
L 198.028651 -63.36 
L 201.05803 -63.36 
L 204.08741 -63.36 
L 207.116789 -63.36 
L 210.146169 -63.36 
L 213.175548 -63.36 
L 216.204928 -63.36 
L 219.234307 -63.36 
L 222.263686 -63.36 
L 225.293066 -63.36 
L 228.322445 -63.36 
L 231.351825 -63.36 
L 234.381204 -63.36 
L 237.410584 -63.36 
L 240.439963 -63.36 
L 243.469342 -63.36 
L 246.498722 -63.36 
L 249.528101 -63.36 
L 252.557481 -63.36 
L 255.58686 -63.36 
L 258.616239 -63.36 
L 261.645619 -63.36 
L 264.674998 -63.36 
L 267.704378 -63.36 
L 270.733757 -63.36 
L 273.763137 -63.36 
L 276.792516 -63.36 
L 279.821895 -63.36 
L 282.851275 -63.36 
L 285.880654 -63.36 
L 288.910034 -63.36 
L 291.939413 -63.36 
L 294.968793 -63.36 
L 297.998172 -63.36 
L 301.027551 -63.36 
L 304.056931 -63.36 
L 307.08631 -63.36 
L 310.11569 -63.36 
L 313.145069 -63.36 
L 316.174449 -63.36 
L 319.203828 -63.36 
L 322.233207 -63.36 
L 325.262587 -63.36 
L 328.291966 -63.36 
L 331.321346 -63.36 
L 334.350725 -63.36 
L 337.380105 -63.36 
L 340.409484 -63.36 
L 343.438863 -63.36 
L 346.468243 -63.36 
L 349.497622 -63.36 
L 352.527002 -63.36 
L 355.556381 -63.36 
L 358.585761 -63.36 
L 361.61514 -63.36 
L 364.644519 -63.36 
L 367.673899 -63.36 
L 370.703278 -63.36 
L 373.732658 -63.36 
L 376.762037 -63.36 
L 379.791416 -63.36 
L 382.820796 -63.36 
L 385.850175 -63.36 
L 388.879555 -63.36 
L 391.908934 -63.36 
L 394.938314 -63.36 
L 397.967693 -63.36 
L 400.997072 -63.36 
L 404.026452 -63.36 
L 407.055831 -63.36 
L 410.085211 -63.36 
L 413.11459 -63.36 
L 416.14397 -63.36 
L 419.173349 -63.36 
L 422.202728 -63.36 
L 425.232108 -63.36 
L 428.261487 -63.36 
L 431.290867 -63.36 
L 434.320246 -63.36 
L 437.349626 -63.36 
L 440.379005 -63.36 
L 443.408384 -63.36 
L 446.437764 -63.36 
L 449.467143 -63.36 
L 452.496523 -63.36 
L 455.525902 -63.36 
L 458.555282 -63.36 
L 461.584661 -63.36 
L 464.61404 -63.36 
L 467.64342 -63.36 
L 470.672799 -63.36 
L 473.702179 -63.36 
L 476.731558 -63.36 
L 479.760938 -63.36 
L 482.790317 -63.36 
L 485.819696 -63.36 
L 488.849076 -63.36 
L 491.878455 -63.36 
L 494.907835 -63.36 
L 497.937214 -63.36 
L 500.966594 -63.36 
L 503.995973 -63.36 
L 507.025352 -63.36 
L 510.054732 -63.36 
L 513.084111 -63.36 
L 516.113491 -63.36 
L 519.14287 -63.36 
L 522.172249 -63.36 
L 525.201629 -63.36 
L 528.231008 -63.36 
L 531.260388 -63.36 
L 534.289767 -63.36 
L 537.319147 -63.36 
L 540.348526 -63.36 
L 543.377905 -63.36 
L 546.407285 -63.36 
L 549.436664 -63.36 
L 552.466044 -63.36 
L 555.495423 -63.36 
L 558.524803 -63.36 
L 561.554182 -63.36 
L 564.583561 -63.36 
L 567.612941 -63.36 
L 570.64232 -63.36 
L 573.6717 -63.36 
L 576.701079 -63.36 
L 579.730459 -63.36 
L 582.759838 -63.36 
L 585.789217 -63.36 
L 588.818597 -63.36 
L 591.847976 -63.36 
L 594.877356 -63.36 
L 597.906735 -63.36 
L 600.936115 -63.36 
L 603.965494 -63.36 
L 606.994873 -63.36 
L 610.024253 -63.36 
L 610.024253 -63.508529 
L 610.024253 -63.508529 
L 606.994873 -63.553251 
L 603.965494 -63.609682 
L 600.936115 -63.680346 
L 597.906735 -63.76816 
L 594.877356 -63.876453 
L 591.847976 -64.008983 
L 588.818597 -64.169937 
L 585.789217 -64.363917 
L 582.759838 -64.595912 
L 579.730459 -64.87125 
L 576.701079 -65.195521 
L 573.6717 -65.574493 
L 570.64232 -66.013986 
L 567.612941 -66.519742 
L 564.583561 -67.09726 
L 561.554182 -67.751623 
L 558.524803 -68.487311 
L 555.495423 -69.308004 
L 552.466044 -70.216392 
L 549.436664 -71.213994 
L 546.407285 -72.30099 
L 543.377905 -73.476089 
L 540.348526 -74.736432 
L 537.319147 -76.077536 
L 534.289767 -77.4933 
L 531.260388 -78.976064 
L 528.231008 -80.516726 
L 525.201629 -82.104932 
L 522.172249 -83.729313 
L 519.14287 -85.377783 
L 516.113491 -87.037877 
L 513.084111 -88.697125 
L 510.054732 -90.343441 
L 507.025352 -91.965517 
L 503.995973 -93.553198 
L 500.966594 -95.097827 
L 497.937214 -96.592545 
L 494.907835 -98.03252 
L 491.878455 -99.415106 
L 488.849076 -100.739917 
L 485.819696 -102.008818 
L 482.790317 -103.225821 
L 479.760938 -104.396913 
L 476.731558 -105.529809 
L 473.702179 -106.633648 
L 470.672799 -107.718658 
L 467.64342 -108.795806 
L 464.61404 -109.876452 
L 461.584661 -110.972027 
L 458.555282 -112.093761 
L 455.525902 -113.252465 
L 452.496523 -114.458382 
L 449.467143 -115.721111 
L 446.437764 -117.049597 
L 443.408384 -118.452186 
L 440.379005 -119.936724 
L 437.349626 -121.510686 
L 434.320246 -123.181309 
L 431.290867 -124.955722 
L 428.261487 -126.841038 
L 425.232108 -128.844396 
L 422.202728 -130.972953 
L 419.173349 -133.2338 
L 416.14397 -135.633836 
L 413.11459 -138.179572 
L 410.085211 -140.87692 
L 407.055831 -143.730958 
L 404.026452 -146.745718 
L 400.997072 -149.924008 
L 397.967693 -153.267305 
L 394.938314 -156.775733 
L 391.908934 -160.448136 
L 388.879555 -164.282264 
L 385.850175 -168.275062 
L 382.820796 -172.423038 
L 379.791416 -176.722714 
L 376.762037 -181.1711 
L 373.732658 -185.766183 
L 370.703278 -190.507367 
L 367.673899 -195.395845 
L 364.644519 -200.434862 
L 361.61514 -205.62983 
L 358.585761 -210.988287 
L 355.556381 -216.519687 
L 352.527002 -222.235015 
L 349.497622 -228.146245 
L 346.468243 -234.265672 
L 343.438863 -240.605137 
L 340.409484 -247.1752 
L 337.380105 -253.984304 
L 334.350725 -261.037968 
L 331.321346 -268.338074 
L 328.291966 -275.882269 
L 325.262587 -283.663536 
L 322.233207 -291.66993 
L 319.203828 -299.884534 
L 316.174449 -308.285584 
L 313.145069 -316.846798 
L 310.11569 -325.53786 
L 307.08631 -334.325033 
L 304.056931 -343.171868 
L 301.027551 -352.039964 
L 297.998172 -360.889739 
L 294.968793 -369.681161 
L 291.939413 -378.374423 
L 288.910034 -386.930516 
L 285.880654 -395.311695 
L 282.851275 -403.481818 
L 279.821895 -411.406575 
L 276.792516 -419.053612 
L 273.763137 -426.392569 
L 270.733757 -433.395071 
L 267.704378 -440.034697 
L 264.674998 -446.286955 
L 261.645619 -452.129313 
L 258.616239 -457.541284 
L 255.58686 -462.504612 
L 252.557481 -467.003538 
L 249.528101 -471.025164 
L 246.498722 -474.559882 
L 243.469342 -477.601854 
L 240.439963 -480.149488 
L 237.410584 -482.20588 
L 234.381204 -483.779162 
L 231.351825 -484.8827 
L 228.322445 -485.535104 
L 225.293066 -485.76 
L 222.263686 -485.58553 
L 219.234307 -485.04358 
L 216.204928 -484.168719 
L 213.175548 -482.996884 
L 210.146169 -481.563851 
L 207.116789 -479.903545 
L 204.08741 -478.046282 
L 201.05803 -476.017011 
L 198.028651 -473.833685 
L 194.999272 -471.505825 
L 191.969892 -469.033407 
L 188.940513 -466.406137 
L 185.911133 -463.603183 
L 182.881754 -460.593417 
L 179.852374 -457.336177 
L 176.822995 -453.782549 
L 173.793616 -449.877116 
L 170.764236 -445.560116 
L 167.734857 -440.769922 
L 164.705477 -435.445715 
L 161.676098 -429.530252 
L 158.646718 -422.972574 
L 155.617339 -415.730554 
L 152.58796 -407.77314 
L 149.55858 -399.082218 
L 146.529201 -389.653995 
L 143.499821 -379.499854 
L 140.470442 -368.646652 
L 137.441062 -357.136466 
L 134.411683 -345.025795 
L 131.382304 -332.384284 
L 128.352924 -319.293028 
L 125.323545 -305.842537 
L 122.294165 -292.130461 
L 119.264786 -278.259156 
L 116.235406 -264.333207 
L 113.206027 -250.456972 
L 110.176648 -236.73226 
L 107.147268 -223.256178 
L 104.117889 -210.11924 
L 101.088509 -197.403751 
L 98.05913 -185.182523 
L 95.029751 -173.517911 
L 92.000371 -162.461196 
L 88.970992 -152.052294 
L 85.941612 -142.319772 
L 82.912233 -133.281143 
L 79.882853 -124.943418 
L 76.853474 -117.303857 
L 73.824095 -110.350897 
L 70.794715 -104.065202 
L 67.765336 -98.420791 
L 64.735956 -93.38622 
L 61.706577 -88.925758 
L 58.677197 -85.000538 
L 55.647818 -81.569649 
L 52.618439 -78.591144 
L 49.589059 -76.022945 
L 46.55968 -73.823635 
L 43.5303 -71.953126 
L 40.500921 -70.3732 
L 37.471541 -69.04793 
L 34.442162 -67.943975 
L 31.412783 -67.030779 
L 28.383403 -66.280659 
L 25.354024 -65.668818 
L 22.324644 -65.17328 
L 19.295265 -64.774775 
L 16.265885 -64.456577 
L 13.236506 -64.204311 
L 10.207127 -64.005745 
L 7.177747 -63.850567 
z
" id="mf022a90f04" style="stroke:#1e90ff;"/>
    </defs>
    <g clip-path="url(#pb86c2eee19)">
     <use style="fill:#1e90ff;fill-opacity:0.6;stroke:#1e90ff;" x="0" xlink:href="#mf022a90f04" y="576"/>
    </g>
   </g>
   <g id="PolyCollection_3">
    <defs>
     <path d="M 30.35103 -64.326425 
L 30.35103 -63.36 
L 33.405482 -63.36 
L 36.459934 -63.36 
L 39.514386 -63.36 
L 42.568838 -63.36 
L 45.62329 -63.36 
L 48.677742 -63.36 
L 51.732194 -63.36 
L 54.786646 -63.36 
L 57.841098 -63.36 
L 60.89555 -63.36 
L 63.950002 -63.36 
L 67.004454 -63.36 
L 70.058906 -63.36 
L 73.113357 -63.36 
L 76.167809 -63.36 
L 79.222261 -63.36 
L 82.276713 -63.36 
L 85.331165 -63.36 
L 88.385617 -63.36 
L 91.440069 -63.36 
L 94.494521 -63.36 
L 97.548973 -63.36 
L 100.603425 -63.36 
L 103.657877 -63.36 
L 106.712329 -63.36 
L 109.766781 -63.36 
L 112.821233 -63.36 
L 115.875685 -63.36 
L 118.930137 -63.36 
L 121.984589 -63.36 
L 125.039041 -63.36 
L 128.093493 -63.36 
L 131.147945 -63.36 
L 134.202397 -63.36 
L 137.256849 -63.36 
L 140.311301 -63.36 
L 143.365753 -63.36 
L 146.420205 -63.36 
L 149.474656 -63.36 
L 152.529108 -63.36 
L 155.58356 -63.36 
L 158.638012 -63.36 
L 161.692464 -63.36 
L 164.746916 -63.36 
L 167.801368 -63.36 
L 170.85582 -63.36 
L 173.910272 -63.36 
L 176.964724 -63.36 
L 180.019176 -63.36 
L 183.073628 -63.36 
L 186.12808 -63.36 
L 189.182532 -63.36 
L 192.236984 -63.36 
L 195.291436 -63.36 
L 198.345888 -63.36 
L 201.40034 -63.36 
L 204.454792 -63.36 
L 207.509244 -63.36 
L 210.563696 -63.36 
L 213.618148 -63.36 
L 216.6726 -63.36 
L 219.727052 -63.36 
L 222.781503 -63.36 
L 225.835955 -63.36 
L 228.890407 -63.36 
L 231.944859 -63.36 
L 234.999311 -63.36 
L 238.053763 -63.36 
L 241.108215 -63.36 
L 244.162667 -63.36 
L 247.217119 -63.36 
L 250.271571 -63.36 
L 253.326023 -63.36 
L 256.380475 -63.36 
L 259.434927 -63.36 
L 262.489379 -63.36 
L 265.543831 -63.36 
L 268.598283 -63.36 
L 271.652735 -63.36 
L 274.707187 -63.36 
L 277.761639 -63.36 
L 280.816091 -63.36 
L 283.870543 -63.36 
L 286.924995 -63.36 
L 289.979447 -63.36 
L 293.033899 -63.36 
L 296.088351 -63.36 
L 299.142802 -63.36 
L 302.197254 -63.36 
L 305.251706 -63.36 
L 308.306158 -63.36 
L 311.36061 -63.36 
L 314.415062 -63.36 
L 317.469514 -63.36 
L 320.523966 -63.36 
L 323.578418 -63.36 
L 326.63287 -63.36 
L 329.687322 -63.36 
L 332.741774 -63.36 
L 335.796226 -63.36 
L 338.850678 -63.36 
L 341.90513 -63.36 
L 344.959582 -63.36 
L 348.014034 -63.36 
L 351.068486 -63.36 
L 354.122938 -63.36 
L 357.17739 -63.36 
L 360.231842 -63.36 
L 363.286294 -63.36 
L 366.340746 -63.36 
L 369.395198 -63.36 
L 372.449649 -63.36 
L 375.504101 -63.36 
L 378.558553 -63.36 
L 381.613005 -63.36 
L 384.667457 -63.36 
L 387.721909 -63.36 
L 390.776361 -63.36 
L 393.830813 -63.36 
L 396.885265 -63.36 
L 399.939717 -63.36 
L 402.994169 -63.36 
L 406.048621 -63.36 
L 409.103073 -63.36 
L 412.157525 -63.36 
L 415.211977 -63.36 
L 418.266429 -63.36 
L 421.320881 -63.36 
L 424.375333 -63.36 
L 427.429785 -63.36 
L 430.484237 -63.36 
L 433.538689 -63.36 
L 436.593141 -63.36 
L 439.647593 -63.36 
L 442.702045 -63.36 
L 445.756497 -63.36 
L 448.810948 -63.36 
L 451.8654 -63.36 
L 454.919852 -63.36 
L 457.974304 -63.36 
L 461.028756 -63.36 
L 464.083208 -63.36 
L 467.13766 -63.36 
L 470.192112 -63.36 
L 473.246564 -63.36 
L 476.301016 -63.36 
L 479.355468 -63.36 
L 482.40992 -63.36 
L 485.464372 -63.36 
L 488.518824 -63.36 
L 491.573276 -63.36 
L 494.627728 -63.36 
L 497.68218 -63.36 
L 500.736632 -63.36 
L 503.791084 -63.36 
L 506.845536 -63.36 
L 509.899988 -63.36 
L 512.95444 -63.36 
L 516.008892 -63.36 
L 519.063344 -63.36 
L 522.117795 -63.36 
L 525.172247 -63.36 
L 528.226699 -63.36 
L 531.281151 -63.36 
L 534.335603 -63.36 
L 537.390055 -63.36 
L 540.444507 -63.36 
L 543.498959 -63.36 
L 546.553411 -63.36 
L 549.607863 -63.36 
L 552.662315 -63.36 
L 555.716767 -63.36 
L 558.771219 -63.36 
L 561.825671 -63.36 
L 564.880123 -63.36 
L 567.934575 -63.36 
L 570.989027 -63.36 
L 574.043479 -63.36 
L 577.097931 -63.36 
L 580.152383 -63.36 
L 583.206835 -63.36 
L 586.261287 -63.36 
L 589.315739 -63.36 
L 592.370191 -63.36 
L 595.424643 -63.36 
L 598.479094 -63.36 
L 601.533546 -63.36 
L 604.587998 -63.36 
L 607.64245 -63.36 
L 610.696902 -63.36 
L 613.751354 -63.36 
L 616.805806 -63.36 
L 619.860258 -63.36 
L 622.91471 -63.36 
L 625.969162 -63.36 
L 629.023614 -63.36 
L 632.078066 -63.36 
L 635.132518 -63.36 
L 638.18697 -63.36 
L 638.18697 -63.386869 
L 638.18697 -63.386869 
L 635.132518 -63.398378 
L 632.078066 -63.414108 
L 629.023614 -63.435305 
L 625.969162 -63.463472 
L 622.91471 -63.500381 
L 619.860258 -63.548078 
L 616.805806 -63.60887 
L 613.751354 -63.685301 
L 610.696902 -63.780103 
L 607.64245 -63.896133 
L 604.587998 -64.036295 
L 601.533546 -64.203447 
L 598.479094 -64.40031 
L 595.424643 -64.629375 
L 592.370191 -64.892834 
L 589.315739 -65.192523 
L 586.261287 -65.529912 
L 583.206835 -65.906125 
L 580.152383 -66.322002 
L 577.097931 -66.77821 
L 574.043479 -67.275365 
L 570.989027 -67.814184 
L 567.934575 -68.395618 
L 564.880123 -69.020971 
L 561.825671 -69.69195 
L 558.771219 -70.410656 
L 555.716767 -71.179482 
L 552.662315 -72.00092 
L 549.607863 -72.877279 
L 546.553411 -73.810341 
L 543.498959 -74.800973 
L 540.444507 -75.84875 
L 537.390055 -76.951636 
L 534.335603 -78.105767 
L 531.281151 -79.305393 
L 528.226699 -80.543016 
L 525.172247 -81.80974 
L 522.117795 -83.095841 
L 519.063344 -84.391529 
L 516.008892 -85.687862 
L 512.95444 -86.977731 
L 509.899988 -88.256848 
L 506.845536 -89.524619 
L 503.791084 -90.784836 
L 500.736632 -92.046071 
L 497.68218 -93.321734 
L 494.627728 -94.629731 
L 491.573276 -95.991736 
L 488.518824 -97.432086 
L 485.464372 -98.976383 
L 482.40992 -100.649884 
L 479.355468 -102.475798 
L 476.301016 -104.473643 
L 473.246564 -106.657771 
L 470.192112 -109.036217 
L 467.13766 -111.609951 
L 464.083208 -114.372625 
L 461.028756 -117.310835 
L 457.974304 -120.404893 
L 454.919852 -123.630044 
L 451.8654 -126.958038 
L 448.810948 -130.358924 
L 445.756497 -133.802929 
L 442.702045 -137.262261 
L 439.647593 -140.712701 
L 436.593141 -144.134877 
L 433.538689 -147.515129 
L 430.484237 -150.845946 
L 427.429785 -154.12596 
L 424.375333 -157.359573 
L 421.320881 -160.556275 
L 418.266429 -163.729763 
L 415.211977 -166.896969 
L 412.157525 -170.077091 
L 409.103073 -173.290699 
L 406.048621 -176.558982 
L 402.994169 -179.903137 
L 399.939717 -183.343898 
L 396.885265 -186.901171 
L 393.830813 -190.593728 
L 390.776361 -194.438899 
L 387.721909 -198.452249 
L 384.667457 -202.647186 
L 381.613005 -207.034534 
L 378.558553 -211.622073 
L 375.504101 -216.414106 
L 372.449649 -221.411102 
L 369.395198 -226.609465 
L 366.340746 -232.001488 
L 363.286294 -237.575489 
L 360.231842 -243.316138 
L 357.17739 -249.204943 
L 354.122938 -255.220814 
L 351.068486 -261.340664 
L 348.014034 -267.53994 
L 344.959582 -273.793052 
L 341.90513 -280.073653 
L 338.850678 -286.354779 
L 335.796226 -292.60889 
L 332.741774 -298.807889 
L 329.687322 -304.923227 
L 326.63287 -310.926188 
L 323.578418 -316.788443 
L 320.523966 -322.482924 
L 317.469514 -327.985018 
L 314.415062 -333.27399 
L 311.36061 -338.334512 
L 308.306158 -343.158108 
L 305.251706 -347.744286 
L 302.197254 -352.101145 
L 299.142802 -356.245269 
L 296.088351 -360.200789 
L 293.033899 -363.997592 
L 289.979447 -367.668751 
L 286.924995 -371.247391 
L 283.870543 -374.763246 
L 280.816091 -378.239302 
L 277.761639 -381.688872 
L 274.707187 -385.113487 
L 271.652735 -388.501901 
L 268.598283 -391.830401 
L 265.543831 -395.064486 
L 262.489379 -398.161835 
L 259.434927 -401.076339 
L 256.380475 -403.762832 
L 253.326023 -406.182094 
L 250.271571 -408.305623 
L 247.217119 -410.119698 
L 244.162667 -411.62828 
L 241.108215 -412.854448 
L 238.053763 -413.84013 
L 234.999311 -414.644125 
L 231.944859 -415.338505 
L 228.890407 -416.003683 
L 225.835955 -416.72254 
L 222.781503 -417.574092 
L 219.727052 -418.627221 
L 216.6726 -419.934973 
L 213.618148 -421.529887 
L 210.563696 -423.420684 
L 207.509244 -425.590562 
L 204.454792 -427.997169 
L 201.40034 -430.574194 
L 198.345888 -433.234416 
L 195.291436 -435.873921 
L 192.236984 -438.377172 
L 189.182532 -440.622555 
L 186.12808 -442.488054 
L 183.073628 -443.856714 
L 180.019176 -444.621604 
L 176.964724 -444.690034 
L 173.910272 -443.986843 
L 170.85582 -442.456603 
L 167.801368 -440.064658 
L 164.746916 -436.796952 
L 161.692464 -432.658667 
L 158.638012 -427.671742 
L 155.58356 -421.871448 
L 152.529108 -415.302239 
L 149.474656 -408.013203 
L 146.420205 -400.053504 
L 143.365753 -391.468218 
L 140.311301 -382.295012 
L 137.256849 -372.562038 
L 134.202397 -362.287339 
L 131.147945 -351.479915 
L 128.093493 -340.142435 
L 125.039041 -328.27537 
L 121.984589 -315.882168 
L 118.930137 -302.974924 
L 115.875685 -289.579901 
L 112.821233 -275.742251 
L 109.766781 -261.529334 
L 106.712329 -247.032162 
L 103.657877 -232.364692 
L 100.603425 -217.66093 
L 97.548973 -203.070028 
L 94.494521 -188.749799 
L 91.440069 -174.859209 
L 88.385617 -161.550546 
L 85.331165 -148.961939 
L 82.276713 -137.210867 
L 79.222261 -126.389174 
L 76.167809 -116.559908 
L 73.113357 -107.756129 
L 70.058906 -99.981622 
L 67.004454 -93.213294 
L 63.950002 -87.404891 
L 60.89555 -82.49162 
L 57.841098 -78.395211 
L 54.786646 -75.029004 
L 51.732194 -72.302698 
L 48.677742 -70.126493 
L 45.62329 -68.414449 
L 42.568838 -67.086995 
L 39.514386 -66.072576 
L 36.459934 -65.308545 
L 33.405482 -64.741385 
L 30.35103 -64.326425 
z
" id="m7fe092670d" style="stroke:#ffa500;"/>
    </defs>
    <g clip-path="url(#pb86c2eee19)">
     <use style="fill:#ffa500;fill-opacity:0.6;stroke:#ffa500;" x="0" xlink:href="#m7fe092670d" y="576"/>
    </g>
   </g>
   <g id="PolyCollection_4">
    <defs>
     <path d="M 7.406775 -65.12925 
L 7.406775 -63.36 
L 11.221783 -63.36 
L 15.03679 -63.36 
L 18.851797 -63.36 
L 22.666804 -63.36 
L 26.481812 -63.36 
L 30.296819 -63.36 
L 34.111826 -63.36 
L 37.926834 -63.36 
L 41.741841 -63.36 
L 45.556848 -63.36 
L 49.371855 -63.36 
L 53.186863 -63.36 
L 57.00187 -63.36 
L 60.816877 -63.36 
L 64.631885 -63.36 
L 68.446892 -63.36 
L 72.261899 -63.36 
L 76.076906 -63.36 
L 79.891914 -63.36 
L 83.706921 -63.36 
L 87.521928 -63.36 
L 91.336936 -63.36 
L 95.151943 -63.36 
L 98.96695 -63.36 
L 102.781957 -63.36 
L 106.596965 -63.36 
L 110.411972 -63.36 
L 114.226979 -63.36 
L 118.041986 -63.36 
L 121.856994 -63.36 
L 125.672001 -63.36 
L 129.487008 -63.36 
L 133.302016 -63.36 
L 137.117023 -63.36 
L 140.93203 -63.36 
L 144.747037 -63.36 
L 148.562045 -63.36 
L 152.377052 -63.36 
L 156.192059 -63.36 
L 160.007067 -63.36 
L 163.822074 -63.36 
L 167.637081 -63.36 
L 171.452088 -63.36 
L 175.267096 -63.36 
L 179.082103 -63.36 
L 182.89711 -63.36 
L 186.712118 -63.36 
L 190.527125 -63.36 
L 194.342132 -63.36 
L 198.157139 -63.36 
L 201.972147 -63.36 
L 205.787154 -63.36 
L 209.602161 -63.36 
L 213.417169 -63.36 
L 217.232176 -63.36 
L 221.047183 -63.36 
L 224.86219 -63.36 
L 228.677198 -63.36 
L 232.492205 -63.36 
L 236.307212 -63.36 
L 240.12222 -63.36 
L 243.937227 -63.36 
L 247.752234 -63.36 
L 251.567241 -63.36 
L 255.382249 -63.36 
L 259.197256 -63.36 
L 263.012263 -63.36 
L 266.827271 -63.36 
L 270.642278 -63.36 
L 274.457285 -63.36 
L 278.272292 -63.36 
L 282.0873 -63.36 
L 285.902307 -63.36 
L 289.717314 -63.36 
L 293.532322 -63.36 
L 297.347329 -63.36 
L 301.162336 -63.36 
L 304.977343 -63.36 
L 308.792351 -63.36 
L 312.607358 -63.36 
L 316.422365 -63.36 
L 320.237373 -63.36 
L 324.05238 -63.36 
L 327.867387 -63.36 
L 331.682394 -63.36 
L 335.497402 -63.36 
L 339.312409 -63.36 
L 343.127416 -63.36 
L 346.942424 -63.36 
L 350.757431 -63.36 
L 354.572438 -63.36 
L 358.387445 -63.36 
L 362.202453 -63.36 
L 366.01746 -63.36 
L 369.832467 -63.36 
L 373.647475 -63.36 
L 377.462482 -63.36 
L 381.277489 -63.36 
L 385.092496 -63.36 
L 388.907504 -63.36 
L 392.722511 -63.36 
L 396.537518 -63.36 
L 400.352525 -63.36 
L 404.167533 -63.36 
L 407.98254 -63.36 
L 411.797547 -63.36 
L 415.612555 -63.36 
L 419.427562 -63.36 
L 423.242569 -63.36 
L 427.057576 -63.36 
L 430.872584 -63.36 
L 434.687591 -63.36 
L 438.502598 -63.36 
L 442.317606 -63.36 
L 446.132613 -63.36 
L 449.94762 -63.36 
L 453.762627 -63.36 
L 457.577635 -63.36 
L 461.392642 -63.36 
L 465.207649 -63.36 
L 469.022657 -63.36 
L 472.837664 -63.36 
L 476.652671 -63.36 
L 480.467678 -63.36 
L 484.282686 -63.36 
L 488.097693 -63.36 
L 491.9127 -63.36 
L 495.727708 -63.36 
L 499.542715 -63.36 
L 503.357722 -63.36 
L 507.172729 -63.36 
L 510.987737 -63.36 
L 514.802744 -63.36 
L 518.617751 -63.36 
L 522.432759 -63.36 
L 526.247766 -63.36 
L 530.062773 -63.36 
L 533.87778 -63.36 
L 537.692788 -63.36 
L 541.507795 -63.36 
L 545.322802 -63.36 
L 549.13781 -63.36 
L 552.952817 -63.36 
L 556.767824 -63.36 
L 560.582831 -63.36 
L 564.397839 -63.36 
L 568.212846 -63.36 
L 572.027853 -63.36 
L 575.842861 -63.36 
L 579.657868 -63.36 
L 583.472875 -63.36 
L 587.287882 -63.36 
L 591.10289 -63.36 
L 594.917897 -63.36 
L 598.732904 -63.36 
L 602.547912 -63.36 
L 606.362919 -63.36 
L 610.177926 -63.36 
L 613.992933 -63.36 
L 617.807941 -63.36 
L 621.622948 -63.36 
L 625.437955 -63.36 
L 629.252963 -63.36 
L 633.06797 -63.36 
L 636.882977 -63.36 
L 640.697984 -63.36 
L 644.512992 -63.36 
L 648.327999 -63.36 
L 652.143006 -63.36 
L 655.958014 -63.36 
L 659.773021 -63.36 
L 663.588028 -63.36 
L 667.403035 -63.36 
L 671.218043 -63.36 
L 675.03305 -63.36 
L 678.848057 -63.36 
L 682.663064 -63.36 
L 686.478072 -63.36 
L 690.293079 -63.36 
L 694.108086 -63.36 
L 697.923094 -63.36 
L 701.738101 -63.36 
L 705.553108 -63.36 
L 709.368115 -63.36 
L 713.183123 -63.36 
L 716.99813 -63.36 
L 720.813137 -63.36 
L 724.628145 -63.36 
L 728.443152 -63.36 
L 732.258159 -63.36 
L 736.073166 -63.36 
L 739.888174 -63.36 
L 743.703181 -63.36 
L 747.518188 -63.36 
L 751.333196 -63.36 
L 755.148203 -63.36 
L 758.96321 -63.36 
L 762.778217 -63.36 
L 766.593225 -63.36 
L 766.593225 -63.38598 
L 766.593225 -63.38598 
L 762.778217 -63.397327 
L 758.96321 -63.413014 
L 755.148203 -63.434435 
L 751.333196 -63.463328 
L 747.518188 -63.501825 
L 743.703181 -63.552494 
L 739.888174 -63.61838 
L 736.073166 -63.703023 
L 732.258159 -63.810463 
L 728.443152 -63.94522 
L 724.628145 -64.112245 
L 720.813137 -64.316841 
L 716.99813 -64.564548 
L 713.183123 -64.861002 
L 709.368115 -65.211753 
L 705.553108 -65.622074 
L 701.738101 -66.096743 
L 697.923094 -66.63983 
L 694.108086 -67.254482 
L 690.293079 -67.942735 
L 686.478072 -68.705352 
L 682.663064 -69.541707 
L 678.848057 -70.449714 
L 675.03305 -71.425808 
L 671.218043 -72.464987 
L 667.403035 -73.5609 
L 663.588028 -74.705985 
L 659.773021 -75.891652 
L 655.958014 -77.108498 
L 652.143006 -78.346556 
L 648.327999 -79.595568 
L 644.512992 -80.845272 
L 640.697984 -82.085723 
L 636.882977 -83.307606 
L 633.06797 -84.50258 
L 629.252963 -85.663604 
L 625.437955 -86.785274 
L 621.622948 -87.864117 
L 617.807941 -88.89886 
L 613.992933 -89.890626 
L 610.177926 -90.84306 
L 606.362919 -91.762351 
L 602.547912 -92.657151 
L 598.732904 -93.538395 
L 594.917897 -94.41901 
L 591.10289 -95.313559 
L 587.287882 -96.237833 
L 583.472875 -97.208427 
L 579.657868 -98.242344 
L 575.842861 -99.35665 
L 572.027853 -100.568215 
L 568.212846 -101.893546 
L 564.397839 -103.34871 
L 560.582831 -104.949335 
L 556.767824 -106.710654 
L 552.952817 -108.647549 
L 549.13781 -110.774552 
L 545.322802 -113.105753 
L 541.507795 -115.654587 
L 537.692788 -118.433465 
L 533.87778 -121.453257 
L 530.062773 -124.722631 
L 526.247766 -128.247303 
L 522.432759 -132.029241 
L 518.617751 -136.065914 
L 514.802744 -140.349663 
L 510.987737 -144.867278 
L 507.172729 -149.599869 
L 503.357722 -154.52308 
L 499.542715 -159.607685 
L 495.727708 -164.820565 
L 491.9127 -170.126022 
L 488.097693 -175.487354 
L 484.282686 -180.868573 
L 480.467678 -186.236128 
L 476.652671 -191.56047 
L 472.837664 -196.817305 
L 469.022657 -201.988402 
L 465.207649 -207.061845 
L 461.392642 -212.031688 
L 457.577635 -216.89702 
L 453.762627 -221.660506 
L 449.94762 -226.326557 
L 446.132613 -230.899283 
L 442.317606 -235.380468 
L 438.502598 -239.767767 
L 434.687591 -244.05333 
L 430.872584 -248.223015 
L 427.057576 -252.256289 
L 423.242569 -256.126835 
L 419.427562 -259.803836 
L 415.612555 -263.253809 
L 411.797547 -266.442825 
L 407.98254 -269.338926 
L 404.167533 -271.914521 
L 400.352525 -274.148592 
L 396.537518 -276.028539 
L 392.722511 -277.551579 
L 388.907504 -278.725649 
L 385.092496 -279.569807 
L 381.277489 -280.114193 
L 377.462482 -280.399588 
L 373.647475 -280.47665 
L 369.832467 -280.404866 
L 366.01746 -280.251231 
L 362.202453 -280.088647 
L 358.387445 -279.993987 
L 354.572438 -280.04577 
L 350.757431 -280.321401 
L 346.942424 -280.893957 
L 343.127416 -281.82856 
L 339.312409 -283.178464 
L 335.497402 -284.981051 
L 331.682394 -287.254013 
L 327.867387 -289.992072 
L 324.05238 -293.164593 
L 320.237373 -296.714458 
L 316.422365 -300.558494 
L 312.607358 -304.589657 
L 308.792351 -308.681043 
L 304.977343 -312.691623 
L 301.162336 -316.473454 
L 297.347329 -319.879953 
L 293.532322 -322.774697 
L 289.717314 -325.040141 
L 285.902307 -326.585597 
L 282.0873 -327.353865 
L 278.272292 -327.325962 
L 274.457285 -326.523535 
L 270.642278 -325.008693 
L 266.827271 -322.881179 
L 263.012263 -320.272972 
L 259.197256 -317.340611 
L 255.382249 -314.25568 
L 251.567241 -311.194013 
L 247.752234 -308.324321 
L 243.937227 -305.796954 
L 240.12222 -303.733561 
L 236.307212 -302.218387 
L 232.492205 -301.291855 
L 228.677198 -300.946974 
L 224.86219 -301.12897 
L 221.047183 -301.738303 
L 217.232176 -302.637027 
L 213.417169 -303.658206 
L 209.602161 -304.617831 
L 205.787154 -305.328473 
L 201.972147 -305.613719 
L 198.157139 -305.322298 
L 194.342132 -304.340782 
L 190.527125 -302.603771 
L 186.712118 -300.100614 
L 182.89711 -296.877966 
L 179.082103 -293.037762 
L 175.267096 -288.730572 
L 171.452088 -284.144665 
L 167.637081 -279.491517 
L 163.822074 -274.988803 
L 160.007067 -270.842201 
L 156.192059 -267.227471 
L 152.377052 -264.274326 
L 148.562045 -262.053513 
L 144.747037 -260.568284 
L 140.93203 -259.751112 
L 137.117023 -259.466077 
L 133.302016 -259.516839 
L 129.487008 -259.659674 
L 125.672001 -259.620528 
L 121.856994 -259.11474 
L 118.041986 -257.867795 
L 114.226979 -255.635381 
L 110.411972 -252.221109 
L 106.596965 -247.490453 
L 102.781957 -241.379856 
L 98.96695 -233.900381 
L 95.151943 -225.135809 
L 91.336936 -215.235583 
L 87.521928 -204.403428 
L 83.706921 -192.88281 
L 79.891914 -180.940619 
L 76.076906 -168.850486 
L 72.261899 -156.877069 
L 68.446892 -145.26243 
L 64.631885 -134.215324 
L 60.816877 -123.903872 
L 57.00187 -114.451751 
L 53.186863 -105.937696 
L 49.371855 -98.397886 
L 45.556848 -91.83057 
L 41.741841 -86.202252 
L 37.926834 -81.454688 
L 34.111826 -77.512076 
L 30.296819 -74.287872 
L 26.481812 -71.690835 
L 22.666804 -69.630056 
L 18.851797 -68.018843 
L 15.03679 -66.777455 
L 11.221783 -65.834807 
L 7.406775 -65.12925 
z
" id="m34e349828a" style="stroke:#ffff00;"/>
    </defs>
    <g clip-path="url(#pb86c2eee19)">
     <use style="fill:#ffff00;fill-opacity:0.6;stroke:#ffff00;" x="0" xlink:href="#m34e349828a" y="576"/>
    </g>
   </g>
   <g id="matplotlib.axis_1">
    <g id="xtick_1">
     <g id="line2d_1">
      <defs>
       <path d="M 0 0 
L 0 3.5 
" id="m7978dfa5e9" style="stroke:#000000;stroke-width:0.8;"/>
      </defs>
      <g>
       <use style="stroke:#000000;stroke-width:0.8;" x="108" xlink:href="#m7978dfa5e9" y="512.64"/>
      </g>
     </g>
     <g id="text_1">
      <!-- 0 -->
      <g transform="translate(103.54625 530.277812)scale(0.14 -0.14)">
       <defs>
        <path d="M 31.78125 66.40625 
Q 24.171875 66.40625 20.328125 58.90625 
Q 16.5 51.421875 16.5 36.375 
Q 16.5 21.390625 20.328125 13.890625 
Q 24.171875 6.390625 31.78125 6.390625 
Q 39.453125 6.390625 43.28125 13.890625 
Q 47.125 21.390625 47.125 36.375 
Q 47.125 51.421875 43.28125 58.90625 
Q 39.453125 66.40625 31.78125 66.40625 
z
M 31.78125 74.21875 
Q 44.046875 74.21875 50.515625 64.515625 
Q 56.984375 54.828125 56.984375 36.375 
Q 56.984375 17.96875 50.515625 8.265625 
Q 44.046875 -1.421875 31.78125 -1.421875 
Q 19.53125 -1.421875 13.0625 8.265625 
Q 6.59375 17.96875 6.59375 36.375 
Q 6.59375 54.828125 13.0625 64.515625 
Q 19.53125 74.21875 31.78125 74.21875 
z
" id="DejaVuSans-48"/>
       </defs>
       <use xlink:href="#DejaVuSans-48"/>
      </g>
     </g>
    </g>
    <g id="xtick_2">
     <g id="line2d_2">
      <g>
       <use style="stroke:#000000;stroke-width:0.8;" x="219.6" xlink:href="#m7978dfa5e9" y="512.64"/>
      </g>
     </g>
     <g id="text_2">
      <!-- 2 -->
      <g transform="translate(215.14625 530.277812)scale(0.14 -0.14)">
       <defs>
        <path d="M 19.1875 8.296875 
L 53.609375 8.296875 
L 53.609375 0 
L 7.328125 0 
L 7.328125 8.296875 
Q 12.9375 14.109375 22.625 23.890625 
Q 32.328125 33.6875 34.8125 36.53125 
Q 39.546875 41.84375 41.421875 45.53125 
Q 43.3125 49.21875 43.3125 52.78125 
Q 43.3125 58.59375 39.234375 62.25 
Q 35.15625 65.921875 28.609375 65.921875 
Q 23.96875 65.921875 18.8125 64.3125 
Q 13.671875 62.703125 7.8125 59.421875 
L 7.8125 69.390625 
Q 13.765625 71.78125 18.9375 73 
Q 24.125 74.21875 28.421875 74.21875 
Q 39.75 74.21875 46.484375 68.546875 
Q 53.21875 62.890625 53.21875 53.421875 
Q 53.21875 48.921875 51.53125 44.890625 
Q 49.859375 40.875 45.40625 35.40625 
Q 44.1875 33.984375 37.640625 27.21875 
Q 31.109375 20.453125 19.1875 8.296875 
z
" id="DejaVuSans-50"/>
       </defs>
       <use xlink:href="#DejaVuSans-50"/>
      </g>
     </g>
    </g>
    <g id="xtick_3">
     <g id="line2d_3">
      <g>
       <use style="stroke:#000000;stroke-width:0.8;" x="331.2" xlink:href="#m7978dfa5e9" y="512.64"/>
      </g>
     </g>
     <g id="text_3">
      <!-- 4 -->
      <g transform="translate(326.74625 530.277812)scale(0.14 -0.14)">
       <defs>
        <path d="M 37.796875 64.3125 
L 12.890625 25.390625 
L 37.796875 25.390625 
z
M 35.203125 72.90625 
L 47.609375 72.90625 
L 47.609375 25.390625 
L 58.015625 25.390625 
L 58.015625 17.1875 
L 47.609375 17.1875 
L 47.609375 0 
L 37.796875 0 
L 37.796875 17.1875 
L 4.890625 17.1875 
L 4.890625 26.703125 
z
" id="DejaVuSans-52"/>
       </defs>
       <use xlink:href="#DejaVuSans-52"/>
      </g>
     </g>
    </g>
    <g id="xtick_4">
     <g id="line2d_4">
      <g>
       <use style="stroke:#000000;stroke-width:0.8;" x="442.8" xlink:href="#m7978dfa5e9" y="512.64"/>
      </g>
     </g>
     <g id="text_4">
      <!-- 6 -->
      <g transform="translate(438.34625 530.277812)scale(0.14 -0.14)">
       <defs>
        <path d="M 33.015625 40.375 
Q 26.375 40.375 22.484375 35.828125 
Q 18.609375 31.296875 18.609375 23.390625 
Q 18.609375 15.53125 22.484375 10.953125 
Q 26.375 6.390625 33.015625 6.390625 
Q 39.65625 6.390625 43.53125 10.953125 
Q 47.40625 15.53125 47.40625 23.390625 
Q 47.40625 31.296875 43.53125 35.828125 
Q 39.65625 40.375 33.015625 40.375 
z
M 52.59375 71.296875 
L 52.59375 62.3125 
Q 48.875 64.0625 45.09375 64.984375 
Q 41.3125 65.921875 37.59375 65.921875 
Q 27.828125 65.921875 22.671875 59.328125 
Q 17.53125 52.734375 16.796875 39.40625 
Q 19.671875 43.65625 24.015625 45.921875 
Q 28.375 48.1875 33.59375 48.1875 
Q 44.578125 48.1875 50.953125 41.515625 
Q 57.328125 34.859375 57.328125 23.390625 
Q 57.328125 12.15625 50.6875 5.359375 
Q 44.046875 -1.421875 33.015625 -1.421875 
Q 20.359375 -1.421875 13.671875 8.265625 
Q 6.984375 17.96875 6.984375 36.375 
Q 6.984375 53.65625 15.1875 63.9375 
Q 23.390625 74.21875 37.203125 74.21875 
Q 40.921875 74.21875 44.703125 73.484375 
Q 48.484375 72.75 52.59375 71.296875 
z
" id="DejaVuSans-54"/>
       </defs>
       <use xlink:href="#DejaVuSans-54"/>
      </g>
     </g>
    </g>
    <g id="xtick_5">
     <g id="line2d_5">
      <g>
       <use style="stroke:#000000;stroke-width:0.8;" x="554.4" xlink:href="#m7978dfa5e9" y="512.64"/>
      </g>
     </g>
     <g id="text_5">
      <!-- 8 -->
      <g transform="translate(549.94625 530.277812)scale(0.14 -0.14)">
       <defs>
        <path d="M 31.78125 34.625 
Q 24.75 34.625 20.71875 30.859375 
Q 16.703125 27.09375 16.703125 20.515625 
Q 16.703125 13.921875 20.71875 10.15625 
Q 24.75 6.390625 31.78125 6.390625 
Q 38.8125 6.390625 42.859375 10.171875 
Q 46.921875 13.96875 46.921875 20.515625 
Q 46.921875 27.09375 42.890625 30.859375 
Q 38.875 34.625 31.78125 34.625 
z
M 21.921875 38.8125 
Q 15.578125 40.375 12.03125 44.71875 
Q 8.5 49.078125 8.5 55.328125 
Q 8.5 64.0625 14.71875 69.140625 
Q 20.953125 74.21875 31.78125 74.21875 
Q 42.671875 74.21875 48.875 69.140625 
Q 55.078125 64.0625 55.078125 55.328125 
Q 55.078125 49.078125 51.53125 44.71875 
Q 48 40.375 41.703125 38.8125 
Q 48.828125 37.15625 52.796875 32.3125 
Q 56.78125 27.484375 56.78125 20.515625 
Q 56.78125 9.90625 50.3125 4.234375 
Q 43.84375 -1.421875 31.78125 -1.421875 
Q 19.734375 -1.421875 13.25 4.234375 
Q 6.78125 9.90625 6.78125 20.515625 
Q 6.78125 27.484375 10.78125 32.3125 
Q 14.796875 37.15625 21.921875 38.8125 
z
M 18.3125 54.390625 
Q 18.3125 48.734375 21.84375 45.5625 
Q 25.390625 42.390625 31.78125 42.390625 
Q 38.140625 42.390625 41.71875 45.5625 
Q 45.3125 48.734375 45.3125 54.390625 
Q 45.3125 60.0625 41.71875 63.234375 
Q 38.140625 66.40625 31.78125 66.40625 
Q 25.390625 66.40625 21.84375 63.234375 
Q 18.3125 60.0625 18.3125 54.390625 
z
" id="DejaVuSans-56"/>
       </defs>
       <use xlink:href="#DejaVuSans-56"/>
      </g>
     </g>
    </g>
    <g id="xtick_6">
     <g id="line2d_6">
      <g>
       <use style="stroke:#000000;stroke-width:0.8;" x="666" xlink:href="#m7978dfa5e9" y="512.64"/>
      </g>
     </g>
     <g id="text_6">
      <!-- 10 -->
      <g transform="translate(657.0925 530.277812)scale(0.14 -0.14)">
       <defs>
        <path d="M 12.40625 8.296875 
L 28.515625 8.296875 
L 28.515625 63.921875 
L 10.984375 60.40625 
L 10.984375 69.390625 
L 28.421875 72.90625 
L 38.28125 72.90625 
L 38.28125 8.296875 
L 54.390625 8.296875 
L 54.390625 0 
L 12.40625 0 
z
" id="DejaVuSans-49"/>
       </defs>
       <use xlink:href="#DejaVuSans-49"/>
       <use x="63.623047" xlink:href="#DejaVuSans-48"/>
      </g>
     </g>
    </g>
    <g id="xtick_7">
     <g id="line2d_7">
      <g>
       <use style="stroke:#000000;stroke-width:0.8;" x="777.6" xlink:href="#m7978dfa5e9" y="512.64"/>
      </g>
     </g>
     <g id="text_7">
      <!-- 12 -->
      <g transform="translate(768.6925 530.277812)scale(0.14 -0.14)">
       <use xlink:href="#DejaVuSans-49"/>
       <use x="63.623047" xlink:href="#DejaVuSans-50"/>
      </g>
     </g>
    </g>
    <g id="text_8">
     <!-- Age (Myr) -->
     <g transform="translate(406.064063 548.587031)scale(0.15 -0.15)">
      <defs>
       <path d="M 34.1875 63.1875 
L 20.796875 26.90625 
L 47.609375 26.90625 
z
M 28.609375 72.90625 
L 39.796875 72.90625 
L 67.578125 0 
L 57.328125 0 
L 50.6875 18.703125 
L 17.828125 18.703125 
L 11.1875 0 
L 0.78125 0 
z
" id="DejaVuSans-65"/>
       <path d="M 45.40625 27.984375 
Q 45.40625 37.75 41.375 43.109375 
Q 37.359375 48.484375 30.078125 48.484375 
Q 22.859375 48.484375 18.828125 43.109375 
Q 14.796875 37.75 14.796875 27.984375 
Q 14.796875 18.265625 18.828125 12.890625 
Q 22.859375 7.515625 30.078125 7.515625 
Q 37.359375 7.515625 41.375 12.890625 
Q 45.40625 18.265625 45.40625 27.984375 
z
M 54.390625 6.78125 
Q 54.390625 -7.171875 48.1875 -13.984375 
Q 42 -20.796875 29.203125 -20.796875 
Q 24.46875 -20.796875 20.265625 -20.09375 
Q 16.0625 -19.390625 12.109375 -17.921875 
L 12.109375 -9.1875 
Q 16.0625 -11.328125 19.921875 -12.34375 
Q 23.78125 -13.375 27.78125 -13.375 
Q 36.625 -13.375 41.015625 -8.765625 
Q 45.40625 -4.15625 45.40625 5.171875 
L 45.40625 9.625 
Q 42.625 4.78125 38.28125 2.390625 
Q 33.9375 0 27.875 0 
Q 17.828125 0 11.671875 7.65625 
Q 5.515625 15.328125 5.515625 27.984375 
Q 5.515625 40.671875 11.671875 48.328125 
Q 17.828125 56 27.875 56 
Q 33.9375 56 38.28125 53.609375 
Q 42.625 51.21875 45.40625 46.390625 
L 45.40625 54.6875 
L 54.390625 54.6875 
z
" id="DejaVuSans-103"/>
       <path d="M 56.203125 29.59375 
L 56.203125 25.203125 
L 14.890625 25.203125 
Q 15.484375 15.921875 20.484375 11.0625 
Q 25.484375 6.203125 34.421875 6.203125 
Q 39.59375 6.203125 44.453125 7.46875 
Q 49.3125 8.734375 54.109375 11.28125 
L 54.109375 2.78125 
Q 49.265625 0.734375 44.1875 -0.34375 
Q 39.109375 -1.421875 33.890625 -1.421875 
Q 20.796875 -1.421875 13.15625 6.1875 
Q 5.515625 13.8125 5.515625 26.8125 
Q 5.515625 40.234375 12.765625 48.109375 
Q 20.015625 56 32.328125 56 
Q 43.359375 56 49.78125 48.890625 
Q 56.203125 41.796875 56.203125 29.59375 
z
M 47.21875 32.234375 
Q 47.125 39.59375 43.09375 43.984375 
Q 39.0625 48.390625 32.421875 48.390625 
Q 24.90625 48.390625 20.390625 44.140625 
Q 15.875 39.890625 15.1875 32.171875 
z
" id="DejaVuSans-101"/>
       <path id="DejaVuSans-32"/>
       <path d="M 31 75.875 
Q 24.46875 64.65625 21.28125 53.65625 
Q 18.109375 42.671875 18.109375 31.390625 
Q 18.109375 20.125 21.3125 9.0625 
Q 24.515625 -2 31 -13.1875 
L 23.1875 -13.1875 
Q 15.875 -1.703125 12.234375 9.375 
Q 8.59375 20.453125 8.59375 31.390625 
Q 8.59375 42.28125 12.203125 53.3125 
Q 15.828125 64.359375 23.1875 75.875 
z
" id="DejaVuSans-40"/>
       <path d="M 9.8125 72.90625 
L 24.515625 72.90625 
L 43.109375 23.296875 
L 61.8125 72.90625 
L 76.515625 72.90625 
L 76.515625 0 
L 66.890625 0 
L 66.890625 64.015625 
L 48.09375 14.015625 
L 38.1875 14.015625 
L 19.390625 64.015625 
L 19.390625 0 
L 9.8125 0 
z
" id="DejaVuSans-77"/>
       <path d="M 32.171875 -5.078125 
Q 28.375 -14.84375 24.75 -17.8125 
Q 21.140625 -20.796875 15.09375 -20.796875 
L 7.90625 -20.796875 
L 7.90625 -13.28125 
L 13.1875 -13.28125 
Q 16.890625 -13.28125 18.9375 -11.515625 
Q 21 -9.765625 23.484375 -3.21875 
L 25.09375 0.875 
L 2.984375 54.6875 
L 12.5 54.6875 
L 29.59375 11.921875 
L 46.6875 54.6875 
L 56.203125 54.6875 
z
" id="DejaVuSans-121"/>
       <path d="M 41.109375 46.296875 
Q 39.59375 47.171875 37.8125 47.578125 
Q 36.03125 48 33.890625 48 
Q 26.265625 48 22.1875 43.046875 
Q 18.109375 38.09375 18.109375 28.8125 
L 18.109375 0 
L 9.078125 0 
L 9.078125 54.6875 
L 18.109375 54.6875 
L 18.109375 46.1875 
Q 20.953125 51.171875 25.484375 53.578125 
Q 30.03125 56 36.53125 56 
Q 37.453125 56 38.578125 55.875 
Q 39.703125 55.765625 41.0625 55.515625 
z
" id="DejaVuSans-114"/>
       <path d="M 8.015625 75.875 
L 15.828125 75.875 
Q 23.140625 64.359375 26.78125 53.3125 
Q 30.421875 42.28125 30.421875 31.390625 
Q 30.421875 20.453125 26.78125 9.375 
Q 23.140625 -1.703125 15.828125 -13.1875 
L 8.015625 -13.1875 
Q 14.5 -2 17.703125 9.0625 
Q 20.90625 20.125 20.90625 31.390625 
Q 20.90625 42.671875 17.703125 53.65625 
Q 14.5 64.65625 8.015625 75.875 
z
" id="DejaVuSans-41"/>
      </defs>
      <use xlink:href="#DejaVuSans-65"/>
      <use x="68.408203" xlink:href="#DejaVuSans-103"/>
      <use x="131.884766" xlink:href="#DejaVuSans-101"/>
      <use x="193.408203" xlink:href="#DejaVuSans-32"/>
      <use x="225.195312" xlink:href="#DejaVuSans-40"/>
      <use x="264.208984" xlink:href="#DejaVuSans-77"/>
      <use x="350.488281" xlink:href="#DejaVuSans-121"/>
      <use x="409.667969" xlink:href="#DejaVuSans-114"/>
      <use x="450.78125" xlink:href="#DejaVuSans-41"/>
     </g>
    </g>
   </g>
   <g id="matplotlib.axis_2">
    <g id="ytick_1">
     <g id="line2d_8">
      <defs>
       <path d="M 0 0 
L -3.5 0 
" id="m14a1553d7a" style="stroke:#000000;stroke-width:0.8;"/>
      </defs>
      <g>
       <use style="stroke:#000000;stroke-width:0.8;" x="108" xlink:href="#m14a1553d7a" y="512.64"/>
      </g>
     </g>
     <g id="text_9">
      <!-- 0.00 -->
      <g transform="translate(69.828125 517.958906)scale(0.14 -0.14)">
       <defs>
        <path d="M 10.6875 12.40625 
L 21 12.40625 
L 21 0 
L 10.6875 0 
z
" id="DejaVuSans-46"/>
       </defs>
       <use xlink:href="#DejaVuSans-48"/>
       <use x="63.623047" xlink:href="#DejaVuSans-46"/>
       <use x="95.410156" xlink:href="#DejaVuSans-48"/>
       <use x="159.033203" xlink:href="#DejaVuSans-48"/>
      </g>
     </g>
    </g>
    <g id="ytick_2">
     <g id="line2d_9">
      <g>
       <use style="stroke:#000000;stroke-width:0.8;" x="108" xlink:href="#m14a1553d7a" y="425.976447"/>
      </g>
     </g>
     <g id="text_10">
      <!-- 0.05 -->
      <g transform="translate(69.828125 431.295353)scale(0.14 -0.14)">
       <defs>
        <path d="M 10.796875 72.90625 
L 49.515625 72.90625 
L 49.515625 64.59375 
L 19.828125 64.59375 
L 19.828125 46.734375 
Q 21.96875 47.46875 24.109375 47.828125 
Q 26.265625 48.1875 28.421875 48.1875 
Q 40.625 48.1875 47.75 41.5 
Q 54.890625 34.8125 54.890625 23.390625 
Q 54.890625 11.625 47.5625 5.09375 
Q 40.234375 -1.421875 26.90625 -1.421875 
Q 22.3125 -1.421875 17.546875 -0.640625 
Q 12.796875 0.140625 7.71875 1.703125 
L 7.71875 11.625 
Q 12.109375 9.234375 16.796875 8.0625 
Q 21.484375 6.890625 26.703125 6.890625 
Q 35.15625 6.890625 40.078125 11.328125 
Q 45.015625 15.765625 45.015625 23.390625 
Q 45.015625 31 40.078125 35.4375 
Q 35.15625 39.890625 26.703125 39.890625 
Q 22.75 39.890625 18.8125 39.015625 
Q 14.890625 38.140625 10.796875 36.28125 
z
" id="DejaVuSans-53"/>
       </defs>
       <use xlink:href="#DejaVuSans-48"/>
       <use x="63.623047" xlink:href="#DejaVuSans-46"/>
       <use x="95.410156" xlink:href="#DejaVuSans-48"/>
       <use x="159.033203" xlink:href="#DejaVuSans-53"/>
      </g>
     </g>
    </g>
    <g id="ytick_3">
     <g id="line2d_10">
      <g>
       <use style="stroke:#000000;stroke-width:0.8;" x="108" xlink:href="#m14a1553d7a" y="339.312894"/>
      </g>
     </g>
     <g id="text_11">
      <!-- 0.10 -->
      <g transform="translate(69.828125 344.6318)scale(0.14 -0.14)">
       <use xlink:href="#DejaVuSans-48"/>
       <use x="63.623047" xlink:href="#DejaVuSans-46"/>
       <use x="95.410156" xlink:href="#DejaVuSans-49"/>
       <use x="159.033203" xlink:href="#DejaVuSans-48"/>
      </g>
     </g>
    </g>
    <g id="ytick_4">
     <g id="line2d_11">
      <g>
       <use style="stroke:#000000;stroke-width:0.8;" x="108" xlink:href="#m14a1553d7a" y="252.649341"/>
      </g>
     </g>
     <g id="text_12">
      <!-- 0.15 -->
      <g transform="translate(69.828125 257.968247)scale(0.14 -0.14)">
       <use xlink:href="#DejaVuSans-48"/>
       <use x="63.623047" xlink:href="#DejaVuSans-46"/>
       <use x="95.410156" xlink:href="#DejaVuSans-49"/>
       <use x="159.033203" xlink:href="#DejaVuSans-53"/>
      </g>
     </g>
    </g>
    <g id="ytick_5">
     <g id="line2d_12">
      <g>
       <use style="stroke:#000000;stroke-width:0.8;" x="108" xlink:href="#m14a1553d7a" y="165.985788"/>
      </g>
     </g>
     <g id="text_13">
      <!-- 0.20 -->
      <g transform="translate(69.828125 171.304694)scale(0.14 -0.14)">
       <use xlink:href="#DejaVuSans-48"/>
       <use x="63.623047" xlink:href="#DejaVuSans-46"/>
       <use x="95.410156" xlink:href="#DejaVuSans-50"/>
       <use x="159.033203" xlink:href="#DejaVuSans-48"/>
      </g>
     </g>
    </g>
    <g id="ytick_6">
     <g id="line2d_13">
      <g>
       <use style="stroke:#000000;stroke-width:0.8;" x="108" xlink:href="#m14a1553d7a" y="79.322234"/>
      </g>
     </g>
     <g id="text_14">
      <!-- 0.25 -->
      <g transform="translate(69.828125 84.641141)scale(0.14 -0.14)">
       <use xlink:href="#DejaVuSans-48"/>
       <use x="63.623047" xlink:href="#DejaVuSans-46"/>
       <use x="95.410156" xlink:href="#DejaVuSans-50"/>
       <use x="159.033203" xlink:href="#DejaVuSans-53"/>
      </g>
     </g>
    </g>
    <g id="text_15">
     <!-- Density -->
     <g transform="translate(62.708594 319.392891)rotate(-90)scale(0.15 -0.15)">
      <defs>
       <path d="M 19.671875 64.796875 
L 19.671875 8.109375 
L 31.59375 8.109375 
Q 46.6875 8.109375 53.6875 14.9375 
Q 60.6875 21.78125 60.6875 36.53125 
Q 60.6875 51.171875 53.6875 57.984375 
Q 46.6875 64.796875 31.59375 64.796875 
z
M 9.8125 72.90625 
L 30.078125 72.90625 
Q 51.265625 72.90625 61.171875 64.09375 
Q 71.09375 55.28125 71.09375 36.53125 
Q 71.09375 17.671875 61.125 8.828125 
Q 51.171875 0 30.078125 0 
L 9.8125 0 
z
" id="DejaVuSans-68"/>
       <path d="M 54.890625 33.015625 
L 54.890625 0 
L 45.90625 0 
L 45.90625 32.71875 
Q 45.90625 40.484375 42.875 44.328125 
Q 39.84375 48.1875 33.796875 48.1875 
Q 26.515625 48.1875 22.3125 43.546875 
Q 18.109375 38.921875 18.109375 30.90625 
L 18.109375 0 
L 9.078125 0 
L 9.078125 54.6875 
L 18.109375 54.6875 
L 18.109375 46.1875 
Q 21.34375 51.125 25.703125 53.5625 
Q 30.078125 56 35.796875 56 
Q 45.21875 56 50.046875 50.171875 
Q 54.890625 44.34375 54.890625 33.015625 
z
" id="DejaVuSans-110"/>
       <path d="M 44.28125 53.078125 
L 44.28125 44.578125 
Q 40.484375 46.53125 36.375 47.5 
Q 32.28125 48.484375 27.875 48.484375 
Q 21.1875 48.484375 17.84375 46.4375 
Q 14.5 44.390625 14.5 40.28125 
Q 14.5 37.15625 16.890625 35.375 
Q 19.28125 33.59375 26.515625 31.984375 
L 29.59375 31.296875 
Q 39.15625 29.25 43.1875 25.515625 
Q 47.21875 21.78125 47.21875 15.09375 
Q 47.21875 7.46875 41.1875 3.015625 
Q 35.15625 -1.421875 24.609375 -1.421875 
Q 20.21875 -1.421875 15.453125 -0.5625 
Q 10.6875 0.296875 5.421875 2 
L 5.421875 11.28125 
Q 10.40625 8.6875 15.234375 7.390625 
Q 20.0625 6.109375 24.8125 6.109375 
Q 31.15625 6.109375 34.5625 8.28125 
Q 37.984375 10.453125 37.984375 14.40625 
Q 37.984375 18.0625 35.515625 20.015625 
Q 33.0625 21.96875 24.703125 23.78125 
L 21.578125 24.515625 
Q 13.234375 26.265625 9.515625 29.90625 
Q 5.8125 33.546875 5.8125 39.890625 
Q 5.8125 47.609375 11.28125 51.796875 
Q 16.75 56 26.8125 56 
Q 31.78125 56 36.171875 55.265625 
Q 40.578125 54.546875 44.28125 53.078125 
z
" id="DejaVuSans-115"/>
       <path d="M 9.421875 54.6875 
L 18.40625 54.6875 
L 18.40625 0 
L 9.421875 0 
z
M 9.421875 75.984375 
L 18.40625 75.984375 
L 18.40625 64.59375 
L 9.421875 64.59375 
z
" id="DejaVuSans-105"/>
       <path d="M 18.3125 70.21875 
L 18.3125 54.6875 
L 36.8125 54.6875 
L 36.8125 47.703125 
L 18.3125 47.703125 
L 18.3125 18.015625 
Q 18.3125 11.328125 20.140625 9.421875 
Q 21.96875 7.515625 27.59375 7.515625 
L 36.8125 7.515625 
L 36.8125 0 
L 27.59375 0 
Q 17.1875 0 13.234375 3.875 
Q 9.28125 7.765625 9.28125 18.015625 
L 9.28125 47.703125 
L 2.6875 47.703125 
L 2.6875 54.6875 
L 9.28125 54.6875 
L 9.28125 70.21875 
z
" id="DejaVuSans-116"/>
      </defs>
      <use xlink:href="#DejaVuSans-68"/>
      <use x="77.001953" xlink:href="#DejaVuSans-101"/>
      <use x="138.525391" xlink:href="#DejaVuSans-110"/>
      <use x="201.904297" xlink:href="#DejaVuSans-115"/>
      <use x="254.003906" xlink:href="#DejaVuSans-105"/>
      <use x="281.787109" xlink:href="#DejaVuSans-116"/>
      <use x="320.996094" xlink:href="#DejaVuSans-121"/>
     </g>
    </g>
   </g>
   <g id="patch_3">
    <path d="M 108 512.64 
L 108 69.12 
" style="fill:none;stroke:#000000;stroke-linecap:square;stroke-linejoin:miter;stroke-width:0.8;"/>
   </g>
   <g id="patch_4">
    <path d="M 777.6 512.64 
L 777.6 69.12 
" style="fill:none;stroke:#000000;stroke-linecap:square;stroke-linejoin:miter;stroke-width:0.8;"/>
   </g>
   <g id="patch_5">
    <path d="M 108 512.64 
L 777.6 512.64 
" style="fill:none;stroke:#000000;stroke-linecap:square;stroke-linejoin:miter;stroke-width:0.8;"/>
   </g>
   <g id="patch_6">
    <path d="M 108 69.12 
L 777.6 69.12 
" style="fill:none;stroke:#000000;stroke-linecap:square;stroke-linejoin:miter;stroke-width:0.8;"/>
   </g>
   <g id="text_16">
    <!-- Density plot of transposable elements age for B.barthei -->
    <g transform="translate(233.925 63.12)scale(0.15 -0.15)">
     <defs>
      <path d="M 18.109375 8.203125 
L 18.109375 -20.796875 
L 9.078125 -20.796875 
L 9.078125 54.6875 
L 18.109375 54.6875 
L 18.109375 46.390625 
Q 20.953125 51.265625 25.265625 53.625 
Q 29.59375 56 35.59375 56 
Q 45.5625 56 51.78125 48.09375 
Q 58.015625 40.1875 58.015625 27.296875 
Q 58.015625 14.40625 51.78125 6.484375 
Q 45.5625 -1.421875 35.59375 -1.421875 
Q 29.59375 -1.421875 25.265625 0.953125 
Q 20.953125 3.328125 18.109375 8.203125 
z
M 48.6875 27.296875 
Q 48.6875 37.203125 44.609375 42.84375 
Q 40.53125 48.484375 33.40625 48.484375 
Q 26.265625 48.484375 22.1875 42.84375 
Q 18.109375 37.203125 18.109375 27.296875 
Q 18.109375 17.390625 22.1875 11.75 
Q 26.265625 6.109375 33.40625 6.109375 
Q 40.53125 6.109375 44.609375 11.75 
Q 48.6875 17.390625 48.6875 27.296875 
z
" id="DejaVuSans-112"/>
      <path d="M 9.421875 75.984375 
L 18.40625 75.984375 
L 18.40625 0 
L 9.421875 0 
z
" id="DejaVuSans-108"/>
      <path d="M 30.609375 48.390625 
Q 23.390625 48.390625 19.1875 42.75 
Q 14.984375 37.109375 14.984375 27.296875 
Q 14.984375 17.484375 19.15625 11.84375 
Q 23.34375 6.203125 30.609375 6.203125 
Q 37.796875 6.203125 41.984375 11.859375 
Q 46.1875 17.53125 46.1875 27.296875 
Q 46.1875 37.015625 41.984375 42.703125 
Q 37.796875 48.390625 30.609375 48.390625 
z
M 30.609375 56 
Q 42.328125 56 49.015625 48.375 
Q 55.71875 40.765625 55.71875 27.296875 
Q 55.71875 13.875 49.015625 6.21875 
Q 42.328125 -1.421875 30.609375 -1.421875 
Q 18.84375 -1.421875 12.171875 6.21875 
Q 5.515625 13.875 5.515625 27.296875 
Q 5.515625 40.765625 12.171875 48.375 
Q 18.84375 56 30.609375 56 
z
" id="DejaVuSans-111"/>
      <path d="M 37.109375 75.984375 
L 37.109375 68.5 
L 28.515625 68.5 
Q 23.6875 68.5 21.796875 66.546875 
Q 19.921875 64.59375 19.921875 59.515625 
L 19.921875 54.6875 
L 34.71875 54.6875 
L 34.71875 47.703125 
L 19.921875 47.703125 
L 19.921875 0 
L 10.890625 0 
L 10.890625 47.703125 
L 2.296875 47.703125 
L 2.296875 54.6875 
L 10.890625 54.6875 
L 10.890625 58.5 
Q 10.890625 67.625 15.140625 71.796875 
Q 19.390625 75.984375 28.609375 75.984375 
z
" id="DejaVuSans-102"/>
      <path d="M 34.28125 27.484375 
Q 23.390625 27.484375 19.1875 25 
Q 14.984375 22.515625 14.984375 16.5 
Q 14.984375 11.71875 18.140625 8.90625 
Q 21.296875 6.109375 26.703125 6.109375 
Q 34.1875 6.109375 38.703125 11.40625 
Q 43.21875 16.703125 43.21875 25.484375 
L 43.21875 27.484375 
z
M 52.203125 31.203125 
L 52.203125 0 
L 43.21875 0 
L 43.21875 8.296875 
Q 40.140625 3.328125 35.546875 0.953125 
Q 30.953125 -1.421875 24.3125 -1.421875 
Q 15.921875 -1.421875 10.953125 3.296875 
Q 6 8.015625 6 15.921875 
Q 6 25.140625 12.171875 29.828125 
Q 18.359375 34.515625 30.609375 34.515625 
L 43.21875 34.515625 
L 43.21875 35.40625 
Q 43.21875 41.609375 39.140625 45 
Q 35.0625 48.390625 27.6875 48.390625 
Q 23 48.390625 18.546875 47.265625 
Q 14.109375 46.140625 10.015625 43.890625 
L 10.015625 52.203125 
Q 14.9375 54.109375 19.578125 55.046875 
Q 24.21875 56 28.609375 56 
Q 40.484375 56 46.34375 49.84375 
Q 52.203125 43.703125 52.203125 31.203125 
z
" id="DejaVuSans-97"/>
      <path d="M 48.6875 27.296875 
Q 48.6875 37.203125 44.609375 42.84375 
Q 40.53125 48.484375 33.40625 48.484375 
Q 26.265625 48.484375 22.1875 42.84375 
Q 18.109375 37.203125 18.109375 27.296875 
Q 18.109375 17.390625 22.1875 11.75 
Q 26.265625 6.109375 33.40625 6.109375 
Q 40.53125 6.109375 44.609375 11.75 
Q 48.6875 17.390625 48.6875 27.296875 
z
M 18.109375 46.390625 
Q 20.953125 51.265625 25.265625 53.625 
Q 29.59375 56 35.59375 56 
Q 45.5625 56 51.78125 48.09375 
Q 58.015625 40.1875 58.015625 27.296875 
Q 58.015625 14.40625 51.78125 6.484375 
Q 45.5625 -1.421875 35.59375 -1.421875 
Q 29.59375 -1.421875 25.265625 0.953125 
Q 20.953125 3.328125 18.109375 8.203125 
L 18.109375 0 
L 9.078125 0 
L 9.078125 75.984375 
L 18.109375 75.984375 
z
" id="DejaVuSans-98"/>
      <path d="M 52 44.1875 
Q 55.375 50.25 60.0625 53.125 
Q 64.75 56 71.09375 56 
Q 79.640625 56 84.28125 50.015625 
Q 88.921875 44.046875 88.921875 33.015625 
L 88.921875 0 
L 79.890625 0 
L 79.890625 32.71875 
Q 79.890625 40.578125 77.09375 44.375 
Q 74.3125 48.1875 68.609375 48.1875 
Q 61.625 48.1875 57.5625 43.546875 
Q 53.515625 38.921875 53.515625 30.90625 
L 53.515625 0 
L 44.484375 0 
L 44.484375 32.71875 
Q 44.484375 40.625 41.703125 44.40625 
Q 38.921875 48.1875 33.109375 48.1875 
Q 26.21875 48.1875 22.15625 43.53125 
Q 18.109375 38.875 18.109375 30.90625 
L 18.109375 0 
L 9.078125 0 
L 9.078125 54.6875 
L 18.109375 54.6875 
L 18.109375 46.1875 
Q 21.1875 51.21875 25.484375 53.609375 
Q 29.78125 56 35.6875 56 
Q 41.65625 56 45.828125 52.96875 
Q 50 49.953125 52 44.1875 
z
" id="DejaVuSans-109"/>
      <path d="M 19.671875 34.8125 
L 19.671875 8.109375 
L 35.5 8.109375 
Q 43.453125 8.109375 47.28125 11.40625 
Q 51.125 14.703125 51.125 21.484375 
Q 51.125 28.328125 47.28125 31.5625 
Q 43.453125 34.8125 35.5 34.8125 
z
M 19.671875 64.796875 
L 19.671875 42.828125 
L 34.28125 42.828125 
Q 41.5 42.828125 45.03125 45.53125 
Q 48.578125 48.25 48.578125 53.8125 
Q 48.578125 59.328125 45.03125 62.0625 
Q 41.5 64.796875 34.28125 64.796875 
z
M 9.8125 72.90625 
L 35.015625 72.90625 
Q 46.296875 72.90625 52.390625 68.21875 
Q 58.5 63.53125 58.5 54.890625 
Q 58.5 48.1875 55.375 44.234375 
Q 52.25 40.28125 46.1875 39.3125 
Q 53.46875 37.75 57.5 32.78125 
Q 61.53125 27.828125 61.53125 20.40625 
Q 61.53125 10.640625 54.890625 5.3125 
Q 48.25 0 35.984375 0 
L 9.8125 0 
z
" id="DejaVuSans-66"/>
      <path d="M 54.890625 33.015625 
L 54.890625 0 
L 45.90625 0 
L 45.90625 32.71875 
Q 45.90625 40.484375 42.875 44.328125 
Q 39.84375 48.1875 33.796875 48.1875 
Q 26.515625 48.1875 22.3125 43.546875 
Q 18.109375 38.921875 18.109375 30.90625 
L 18.109375 0 
L 9.078125 0 
L 9.078125 75.984375 
L 18.109375 75.984375 
L 18.109375 46.1875 
Q 21.34375 51.125 25.703125 53.5625 
Q 30.078125 56 35.796875 56 
Q 45.21875 56 50.046875 50.171875 
Q 54.890625 44.34375 54.890625 33.015625 
z
" id="DejaVuSans-104"/>
     </defs>
     <use xlink:href="#DejaVuSans-68"/>
     <use x="77.001953" xlink:href="#DejaVuSans-101"/>
     <use x="138.525391" xlink:href="#DejaVuSans-110"/>
     <use x="201.904297" xlink:href="#DejaVuSans-115"/>
     <use x="254.003906" xlink:href="#DejaVuSans-105"/>
     <use x="281.787109" xlink:href="#DejaVuSans-116"/>
     <use x="320.996094" xlink:href="#DejaVuSans-121"/>
     <use x="380.175781" xlink:href="#DejaVuSans-32"/>
     <use x="411.962891" xlink:href="#DejaVuSans-112"/>
     <use x="475.439453" xlink:href="#DejaVuSans-108"/>
     <use x="503.222656" xlink:href="#DejaVuSans-111"/>
     <use x="564.404297" xlink:href="#DejaVuSans-116"/>
     <use x="603.613281" xlink:href="#DejaVuSans-32"/>
     <use x="635.400391" xlink:href="#DejaVuSans-111"/>
     <use x="696.582031" xlink:href="#DejaVuSans-102"/>
     <use x="731.787109" xlink:href="#DejaVuSans-32"/>
     <use x="763.574219" xlink:href="#DejaVuSans-116"/>
     <use x="802.783203" xlink:href="#DejaVuSans-114"/>
     <use x="843.896484" xlink:href="#DejaVuSans-97"/>
     <use x="905.175781" xlink:href="#DejaVuSans-110"/>
     <use x="968.554688" xlink:href="#DejaVuSans-115"/>
     <use x="1020.654297" xlink:href="#DejaVuSans-112"/>
     <use x="1084.130859" xlink:href="#DejaVuSans-111"/>
     <use x="1145.3125" xlink:href="#DejaVuSans-115"/>
     <use x="1197.412109" xlink:href="#DejaVuSans-97"/>
     <use x="1258.691406" xlink:href="#DejaVuSans-98"/>
     <use x="1322.167969" xlink:href="#DejaVuSans-108"/>
     <use x="1349.951172" xlink:href="#DejaVuSans-101"/>
     <use x="1411.474609" xlink:href="#DejaVuSans-32"/>
     <use x="1443.261719" xlink:href="#DejaVuSans-101"/>
     <use x="1504.785156" xlink:href="#DejaVuSans-108"/>
     <use x="1532.568359" xlink:href="#DejaVuSans-101"/>
     <use x="1594.091797" xlink:href="#DejaVuSans-109"/>
     <use x="1691.503906" xlink:href="#DejaVuSans-101"/>
     <use x="1753.027344" xlink:href="#DejaVuSans-110"/>
     <use x="1816.40625" xlink:href="#DejaVuSans-116"/>
     <use x="1855.615234" xlink:href="#DejaVuSans-115"/>
     <use x="1907.714844" xlink:href="#DejaVuSans-32"/>
     <use x="1939.501953" xlink:href="#DejaVuSans-97"/>
     <use x="2000.78125" xlink:href="#DejaVuSans-103"/>
     <use x="2064.257812" xlink:href="#DejaVuSans-101"/>
     <use x="2125.78125" xlink:href="#DejaVuSans-32"/>
     <use x="2157.568359" xlink:href="#DejaVuSans-102"/>
     <use x="2192.773438" xlink:href="#DejaVuSans-111"/>
     <use x="2253.955078" xlink:href="#DejaVuSans-114"/>
     <use x="2295.068359" xlink:href="#DejaVuSans-32"/>
     <use x="2326.855469" xlink:href="#DejaVuSans-66"/>
     <use x="2395.458984" xlink:href="#DejaVuSans-46"/>
     <use x="2427.246094" xlink:href="#DejaVuSans-98"/>
     <use x="2490.722656" xlink:href="#DejaVuSans-97"/>
     <use x="2552.001953" xlink:href="#DejaVuSans-114"/>
     <use x="2593.115234" xlink:href="#DejaVuSans-116"/>
     <use x="2632.324219" xlink:href="#DejaVuSans-104"/>
     <use x="2695.703125" xlink:href="#DejaVuSans-101"/>
     <use x="2757.226562" xlink:href="#DejaVuSans-105"/>
    </g>
   </g>
   <g id="legend_1">
    <g id="patch_7">
     <path d="M 617.564063 169.605937 
L 767.1 169.605937 
Q 770.1 169.605937 770.1 166.605937 
L 770.1 79.62 
Q 770.1 76.62 767.1 76.62 
L 617.564063 76.62 
Q 614.564063 76.62 614.564063 79.62 
L 614.564063 166.605937 
Q 614.564063 169.605937 617.564063 169.605937 
z
" style="fill:#ffffff;opacity:0.8;stroke:#cccccc;stroke-linejoin:miter;"/>
    </g>
    <g id="patch_8">
     <path d="M 620.564063 94.017656 
L 650.564063 94.017656 
L 650.564063 83.517656 
L 620.564063 83.517656 
z
" style="fill:#ff0000;fill-opacity:0.6;stroke:#ff0000;stroke-linejoin:miter;"/>
    </g>
    <g id="text_17">
     <!-- Gypsy -->
     <g transform="translate(662.564063 94.017656)scale(0.15 -0.15)">
      <defs>
       <path d="M 59.515625 10.40625 
L 59.515625 29.984375 
L 43.40625 29.984375 
L 43.40625 38.09375 
L 69.28125 38.09375 
L 69.28125 6.78125 
Q 63.578125 2.734375 56.6875 0.65625 
Q 49.8125 -1.421875 42 -1.421875 
Q 24.90625 -1.421875 15.25 8.5625 
Q 5.609375 18.5625 5.609375 36.375 
Q 5.609375 54.25 15.25 64.234375 
Q 24.90625 74.21875 42 74.21875 
Q 49.125 74.21875 55.546875 72.453125 
Q 61.96875 70.703125 67.390625 67.28125 
L 67.390625 56.78125 
Q 61.921875 61.421875 55.765625 63.765625 
Q 49.609375 66.109375 42.828125 66.109375 
Q 29.4375 66.109375 22.71875 58.640625 
Q 16.015625 51.171875 16.015625 36.375 
Q 16.015625 21.625 22.71875 14.15625 
Q 29.4375 6.6875 42.828125 6.6875 
Q 48.046875 6.6875 52.140625 7.59375 
Q 56.25 8.5 59.515625 10.40625 
z
" id="DejaVuSans-71"/>
      </defs>
      <use xlink:href="#DejaVuSans-71"/>
      <use x="77.490234" xlink:href="#DejaVuSans-121"/>
      <use x="136.669922" xlink:href="#DejaVuSans-112"/>
      <use x="200.146484" xlink:href="#DejaVuSans-115"/>
      <use x="252.246094" xlink:href="#DejaVuSans-121"/>
     </g>
    </g>
    <g id="patch_9">
     <path d="M 620.564063 116.034844 
L 650.564063 116.034844 
L 650.564063 105.534844 
L 620.564063 105.534844 
z
" style="fill:#1e90ff;fill-opacity:0.6;stroke:#1e90ff;stroke-linejoin:miter;"/>
    </g>
    <g id="text_18">
     <!-- Copia -->
     <g transform="translate(662.564063 116.034844)scale(0.15 -0.15)">
      <defs>
       <path d="M 64.40625 67.28125 
L 64.40625 56.890625 
Q 59.421875 61.53125 53.78125 63.8125 
Q 48.140625 66.109375 41.796875 66.109375 
Q 29.296875 66.109375 22.65625 58.46875 
Q 16.015625 50.828125 16.015625 36.375 
Q 16.015625 21.96875 22.65625 14.328125 
Q 29.296875 6.6875 41.796875 6.6875 
Q 48.140625 6.6875 53.78125 8.984375 
Q 59.421875 11.28125 64.40625 15.921875 
L 64.40625 5.609375 
Q 59.234375 2.09375 53.4375 0.328125 
Q 47.65625 -1.421875 41.21875 -1.421875 
Q 24.65625 -1.421875 15.125 8.703125 
Q 5.609375 18.84375 5.609375 36.375 
Q 5.609375 53.953125 15.125 64.078125 
Q 24.65625 74.21875 41.21875 74.21875 
Q 47.75 74.21875 53.53125 72.484375 
Q 59.328125 70.75 64.40625 67.28125 
z
" id="DejaVuSans-67"/>
      </defs>
      <use xlink:href="#DejaVuSans-67"/>
      <use x="69.824219" xlink:href="#DejaVuSans-111"/>
      <use x="131.005859" xlink:href="#DejaVuSans-112"/>
      <use x="194.482422" xlink:href="#DejaVuSans-105"/>
      <use x="222.265625" xlink:href="#DejaVuSans-97"/>
     </g>
    </g>
    <g id="patch_10">
     <path d="M 620.564063 138.052031 
L 650.564063 138.052031 
L 650.564063 127.552031 
L 620.564063 127.552031 
z
" style="fill:#ffa500;fill-opacity:0.6;stroke:#ffa500;stroke-linejoin:miter;"/>
    </g>
    <g id="text_19">
     <!-- LTR_unknown -->
     <g transform="translate(662.564063 138.052031)scale(0.15 -0.15)">
      <defs>
       <path d="M 9.8125 72.90625 
L 19.671875 72.90625 
L 19.671875 8.296875 
L 55.171875 8.296875 
L 55.171875 0 
L 9.8125 0 
z
" id="DejaVuSans-76"/>
       <path d="M -0.296875 72.90625 
L 61.375 72.90625 
L 61.375 64.59375 
L 35.5 64.59375 
L 35.5 0 
L 25.59375 0 
L 25.59375 64.59375 
L -0.296875 64.59375 
z
" id="DejaVuSans-84"/>
       <path d="M 44.390625 34.1875 
Q 47.5625 33.109375 50.5625 29.59375 
Q 53.5625 26.078125 56.59375 19.921875 
L 66.609375 0 
L 56 0 
L 46.6875 18.703125 
Q 43.0625 26.03125 39.671875 28.421875 
Q 36.28125 30.8125 30.421875 30.8125 
L 19.671875 30.8125 
L 19.671875 0 
L 9.8125 0 
L 9.8125 72.90625 
L 32.078125 72.90625 
Q 44.578125 72.90625 50.734375 67.671875 
Q 56.890625 62.453125 56.890625 51.90625 
Q 56.890625 45.015625 53.6875 40.46875 
Q 50.484375 35.9375 44.390625 34.1875 
z
M 19.671875 64.796875 
L 19.671875 38.921875 
L 32.078125 38.921875 
Q 39.203125 38.921875 42.84375 42.21875 
Q 46.484375 45.515625 46.484375 51.90625 
Q 46.484375 58.296875 42.84375 61.546875 
Q 39.203125 64.796875 32.078125 64.796875 
z
" id="DejaVuSans-82"/>
       <path d="M 50.984375 -16.609375 
L 50.984375 -23.578125 
L -0.984375 -23.578125 
L -0.984375 -16.609375 
z
" id="DejaVuSans-95"/>
       <path d="M 8.5 21.578125 
L 8.5 54.6875 
L 17.484375 54.6875 
L 17.484375 21.921875 
Q 17.484375 14.15625 20.5 10.265625 
Q 23.53125 6.390625 29.59375 6.390625 
Q 36.859375 6.390625 41.078125 11.03125 
Q 45.3125 15.671875 45.3125 23.6875 
L 45.3125 54.6875 
L 54.296875 54.6875 
L 54.296875 0 
L 45.3125 0 
L 45.3125 8.40625 
Q 42.046875 3.421875 37.71875 1 
Q 33.40625 -1.421875 27.6875 -1.421875 
Q 18.265625 -1.421875 13.375 4.4375 
Q 8.5 10.296875 8.5 21.578125 
z
M 31.109375 56 
z
" id="DejaVuSans-117"/>
       <path d="M 9.078125 75.984375 
L 18.109375 75.984375 
L 18.109375 31.109375 
L 44.921875 54.6875 
L 56.390625 54.6875 
L 27.390625 29.109375 
L 57.625 0 
L 45.90625 0 
L 18.109375 26.703125 
L 18.109375 0 
L 9.078125 0 
z
" id="DejaVuSans-107"/>
       <path d="M 4.203125 54.6875 
L 13.1875 54.6875 
L 24.421875 12.015625 
L 35.59375 54.6875 
L 46.1875 54.6875 
L 57.421875 12.015625 
L 68.609375 54.6875 
L 77.59375 54.6875 
L 63.28125 0 
L 52.6875 0 
L 40.921875 44.828125 
L 29.109375 0 
L 18.5 0 
z
" id="DejaVuSans-119"/>
      </defs>
      <use xlink:href="#DejaVuSans-76"/>
      <use x="41.962891" xlink:href="#DejaVuSans-84"/>
      <use x="103.046875" xlink:href="#DejaVuSans-82"/>
      <use x="172.529297" xlink:href="#DejaVuSans-95"/>
      <use x="222.529297" xlink:href="#DejaVuSans-117"/>
      <use x="285.908203" xlink:href="#DejaVuSans-110"/>
      <use x="349.287109" xlink:href="#DejaVuSans-107"/>
      <use x="407.197266" xlink:href="#DejaVuSans-110"/>
      <use x="470.576172" xlink:href="#DejaVuSans-111"/>
      <use x="531.757812" xlink:href="#DejaVuSans-119"/>
      <use x="613.544922" xlink:href="#DejaVuSans-110"/>
     </g>
    </g>
    <g id="patch_11">
     <path d="M 620.564063 160.486406 
L 650.564063 160.486406 
L 650.564063 149.986406 
L 620.564063 149.986406 
z
" style="fill:#ffff00;fill-opacity:0.6;stroke:#ffff00;stroke-linejoin:miter;"/>
    </g>
    <g id="text_20">
     <!-- TIRs -->
     <g transform="translate(662.564063 160.486406)scale(0.15 -0.15)">
      <defs>
       <path d="M 9.8125 72.90625 
L 19.671875 72.90625 
L 19.671875 0 
L 9.8125 0 
z
" id="DejaVuSans-73"/>
      </defs>
      <use xlink:href="#DejaVuSans-84"/>
      <use x="61.083984" xlink:href="#DejaVuSans-73"/>
      <use x="90.576172" xlink:href="#DejaVuSans-82"/>
      <use x="160.058594" xlink:href="#DejaVuSans-115"/>
     </g>
    </g>
   </g>
  </g>
 </g>
 <defs>
  <clipPath id="pb86c2eee19">
   <rect height="443.52" width="669.6" x="108" y="69.12"/>
  </clipPath>
 </defs>
</svg>
